<?xml version="1.0" encoding="UTF-8" standalone="no"?><svg xmlns="http://www.w3.org/2000/svg" xmlns:xlink="http://www.w3.org/1999/xlink" contentStyleType="text/css" height="632px" preserveAspectRatio="none" style="width:466px;height:632px;background:#FFFFFF;" version="1.1" viewBox="0 0 466 632" width="466px" zoomAndPan="magnify"><defs/><g><g id="CREATE_PARTSSTRUCTUREARTS"><rect fill="#F1F1F1" height="52.9766" rx="12.5" ry="12.5" style="stroke:#181818;stroke-width:0.5;" width="243" x="7" y="103"/><line style="stroke:#181818;stroke-width:0.5;" x1="7" x2="250" y1="129.4883" y2="129.4883"/><text fill="#000000" font-family="sans-serif" font-size="14" lengthAdjust="spacing" textLength="223" x="17" y="121.5352">CREATE_PARTSSTRUCTUREARTS</text><text fill="#000000" font-family="sans-serif" font-size="14" lengthAdjust="spacing" textLength="78" x="12" y="148.0234">CONSUMER</text></g><g id="REQUEST_TRADE"><rect fill="#F1F1F1" height="52.9766" rx="12.5" ry="12.5" style="stroke:#181818;stroke-width:0.5;" width="136" x="39.5" y="232.98"/><line style="stroke:#181818;stroke-width:0.5;" x1="39.5" x2="175.5" y1="259.4683" y2="259.4683"/><text fill="#000000" font-family="sans-serif" font-size="14" lengthAdjust="spacing" textLength="116" x="49.5" y="251.5152">REQUEST_TRADE</text><text fill="#000000" font-family="sans-serif" font-size="14" lengthAdjust="spacing" textLength="78" x="44.5" y="278.0034">CONSUMER</text></g><g id="RESPONSE_TRADE"><rect fill="#F1F1F1" height="52.9766" rx="12.5" ry="12.5" style="stroke:#181818;stroke-width:0.5;" width="143" x="66" y="362.96"/><line style="stroke:#181818;stroke-width:0.5;" x1="66" x2="209" y1="389.4483" y2="389.4483"/><text fill="#000000" font-family="sans-serif" font-size="14" lengthAdjust="spacing" textLength="123" x="76" y="381.4952">RESPONSE_TRADE</text><text fill="#000000" font-family="sans-serif" font-size="14" lengthAdjust="spacing" textLength="68" x="71" y="407.9834">PROVIDER</text></g><g id="SET_CFP"><rect fill="#F1F1F1" height="52.9766" rx="12.5" ry="12.5" style="stroke:#181818;stroke-width:0.5;" width="88" x="287.5" y="103"/><line style="stroke:#181818;stroke-width:0.5;" x1="287.5" x2="375.5" y1="129.4883" y2="129.4883"/><text fill="#000000" font-family="sans-serif" font-size="14" lengthAdjust="spacing" textLength="58" x="302.5" y="121.5352">SET_CFP</text><text fill="#000000" font-family="sans-serif" font-size="14" lengthAdjust="spacing" textLength="68" x="292.5" y="148.0234">PROVIDER</text></g><rect fill="#F1F1F1" height="40" rx="12.5" ry="12.5" style="stroke:#181818;stroke-width:0.5;" width="250" x="210.5" y="239.47"/><text fill="#000000" font-family="sans-serif" font-size="14" lengthAdjust="spacing" textLength="240" x="215.5" y="264.761">COMPLETED_CFPRESPONSESTATUS</text><g id="ALLOWED_CFP"><rect fill="#F1F1F1" height="52.9766" rx="12.5" ry="12.5" style="stroke:#181818;stroke-width:0.5;" width="118" x="247.5" y="362.96"/><line style="stroke:#181818;stroke-width:0.5;" x1="247.5" x2="365.5" y1="389.4483" y2="389.4483"/><text fill="#000000" font-family="sans-serif" font-size="14" lengthAdjust="spacing" textLength="98" x="257.5" y="381.4952">ALLOWED_CFP</text><text fill="#000000" font-family="sans-serif" font-size="14" lengthAdjust="spacing" textLength="68" x="252.5" y="407.9834">PROVIDER</text></g><g id="GET_CFP"><rect fill="#F1F1F1" height="52.9766" rx="12.5" ry="12.5" style="stroke:#181818;stroke-width:0.5;" width="98" x="170.5" y="492.93"/><line style="stroke:#181818;stroke-width:0.5;" x1="170.5" x2="268.5" y1="519.4183" y2="519.4183"/><text fill="#000000" font-family="sans-serif" font-size="14" lengthAdjust="spacing" textLength="60" x="189.5" y="511.4652">GET_CFP</text><text fill="#000000" font-family="sans-serif" font-size="14" lengthAdjust="spacing" textLength="78" x="175.5" y="537.9534">CONSUMER</text></g><ellipse cx="228.5" cy="16" fill="#222222" rx="10" ry="10" style="stroke:none;stroke-width:1.0;"/><ellipse cx="219.5" cy="616.91" fill="none" rx="10" ry="10" style="stroke:#222222;stroke-width:1.0;"/><ellipse cx="220" cy="617.41" fill="#222222" rx="6" ry="6" style="stroke:none;stroke-width:1.0;"/><!--MD5=[5c9839e8ef68d203a2ab0345d6d84113]
link *start to CREATE_PARTSSTRUCTUREARTS--><g id="link_*start_CREATE_PARTSSTRUCTUREARTS"><path d="M218.74,19.52 C202.84,24.11 171.33,35.33 153.5,56 C143.7,67.37 137.68,82.78 134.02,96.47 " fill="none" id="*start-to-CREATE_PARTSSTRUCTUREARTS" style="stroke:#181818;stroke-width:1.0;"/><polygon fill="#181818" points="132.86,101.15,138.9019,93.3721,134.0592,96.2959,131.1354,91.4533,132.86,101.15" style="stroke:#181818;stroke-width:1.0;"/><text fill="#000000" font-family="sans-serif" font-size="13" lengthAdjust="spacing" textLength="120" x="154.5" y="69.5684">6.PutPartsStructure</text></g><!--MD5=[caac8d157d7f86d705de6e01232a4034]
link CREATE_PARTSSTRUCTUREARTS to REQUEST_TRADE--><g id="link_CREATE_PARTSSTRUCTUREARTS_REQUEST_TRADE"><path d="M124.25,156.39 C120.93,176.6 116.31,204.78 112.76,226.41 " fill="none" id="CREATE_PARTSSTRUCTUREARTS-to-REQUEST_TRADE" style="stroke:#181818;stroke-width:1.0;"/><polygon fill="#181818" points="111.99,231.12,117.3766,222.8747,112.7889,226.1842,109.4793,221.5965,111.99,231.12" style="stroke:#181818;stroke-width:1.0;"/><text fill="#000000" font-family="sans-serif" font-size="13" lengthAdjust="spacing" textLength="117" x="120.5" y="199.5484">7.PutTradeRequest</text></g><!--MD5=[e12942fe176663fa75686397fa327b8f]
link REQUEST_TRADE to RESPONSE_TRADE--><g id="link_REQUEST_TRADE_RESPONSE_TRADE"><path d="M113.57,286.37 C118.31,306.58 124.91,334.75 129.98,356.38 " fill="none" id="REQUEST_TRADE-to-RESPONSE_TRADE" style="stroke:#181818;stroke-width:1.0;"/><polygon fill="#181818" points="131.09,361.11,132.9286,351.4343,129.948,356.2422,125.1401,353.2615,131.09,361.11" style="stroke:#181818;stroke-width:1.0;"/><text fill="#000000" font-family="sans-serif" font-size="13" lengthAdjust="spacing" textLength="135" x="125.5" y="329.5284">13.PutTradeResponse</text></g><!--MD5=[f557a9e15a07413b00fca65d5c81c140]
link *start to SET_CFP--><g id="link_*start_SET_CFP"><path d="M236.69,22.16 C247.29,29.07 266,42.08 279.5,56 C291.59,68.47 303.06,83.92 312.14,97.35 " fill="none" id="*start-to-SET_CFP" style="stroke:#181818;stroke-width:1.0;"/><polygon fill="#181818" points="314.79,101.32,313.1259,91.6127,312.0165,97.1597,306.4695,96.0503,314.79,101.32" style="stroke:#181818;stroke-width:1.0;"/><text fill="#000000" font-family="sans-serif" font-size="13" lengthAdjust="spacing" textLength="62" x="294.5" y="69.5684">15.PutCfp</text></g><!--MD5=[bf9b43b1a045f8d938a3e7d4d00cc685]
link SET_CFP to COMPLETED_CFPRESPONSESTATUS--><g id="link_SET_CFP_COMPLETED_CFPRESPONSESTATUS"><path d="M332.31,156.39 C333.01,178.73 334.01,210.8 334.7,233 " fill="none" id="SET_CFP-to-COMPLETED_CFPRESPONSESTATUS" style="stroke:#181818;stroke-width:1.0;"/><polygon fill="#181818" points="334.85,237.76,338.5653,228.6388,334.6929,232.7625,330.5693,228.8901,334.85,237.76" style="stroke:#181818;stroke-width:1.0;"/></g><!--MD5=[f57bd686aedfba988a444f2c7a180794]
link COMPLETED_CFPRESPONSESTATUS to ALLOWED_CFP--><g id="link_COMPLETED_CFPRESPONSESTATUS_ALLOWED_CFP"><path d="M331.1,279.91 C326.5,300.19 319.22,332.33 313.77,356.38 " fill="none" id="COMPLETED_CFPRESPONSESTATUS-to-ALLOWED_CFP" style="stroke:#181818;stroke-width:1.0;"/><polygon fill="#181818" points="312.69,361.14,318.5741,353.2421,313.7913,356.2628,310.7706,351.48,312.69,361.14" style="stroke:#181818;stroke-width:1.0;"/><text fill="#000000" font-family="sans-serif" font-size="13" lengthAdjust="spacing" textLength="72" x="323.5" y="329.5284">allowed cfp</text></g><!--MD5=[9e1050440882440cbd1be80175b44d14]
link ALLOWED_CFP to GET_CFP--><g id="link_ALLOWED_CFP_GET_CFP"><path d="M288.89,416.34 C274.98,436.81 255.51,465.46 240.73,487.19 " fill="none" id="ALLOWED_CFP-to-GET_CFP" style="stroke:#181818;stroke-width:1.0;"/><polygon fill="#181818" points="237.93,491.31,246.296,486.113,240.7396,487.174,239.6785,481.6176,237.93,491.31" style="stroke:#181818;stroke-width:1.0;"/><text fill="#000000" font-family="sans-serif" font-size="13" lengthAdjust="spacing" textLength="63" x="269.5" y="459.4984">14.GetCfp</text></g><!--MD5=[9cc876c86e314efa717291f65aecca56]
link RESPONSE_TRADE to GET_CFP--><g id="link_RESPONSE_TRADE_GET_CFP"><path d="M151.66,416.31 C159.53,430.32 169.69,447.8 179.5,462.93 C184.79,471.1 190.8,479.73 196.52,487.69 " fill="none" id="RESPONSE_TRADE-to-GET_CFP" style="stroke:#181818;stroke-width:1.0;"/><polygon fill="#181818" points="199.14,491.32,197.0996,481.6848,196.2068,487.2708,190.6209,486.3779,199.14,491.32" style="stroke:#181818;stroke-width:1.0;"/><text fill="#000000" font-family="sans-serif" font-size="13" lengthAdjust="spacing" textLength="63" x="180.5" y="459.4984">14.GetCfp</text></g><!--MD5=[a5df721411819123d7d6ec38cec0513e]
link GET_CFP to *end--><g id="link_GET_CFP_*end"><path d="M219.5,546.26 C219.5,563.7 219.5,586.11 219.5,600.73 " fill="none" id="GET_CFP-to-*end" style="stroke:#181818;stroke-width:1.0;"/><polygon fill="#181818" points="219.5,605.34,223.5,596.34,219.5,600.34,215.5,596.34,219.5,605.34" style="stroke:#181818;stroke-width:1.0;"/></g><!--MD5=[de7c6d49fa0cf065f05f9fe65f86e7a9]
@startuml "trade_negotiation_state_machine"
hide empty description

state CREATE_PARTSSTRUCTUREARTS: CONSUMER
state REQUEST_TRADE: CONSUMER
state RESPONSE_TRADE: PROVIDER
state SET_CFP: PROVIDER
state COMPLETED_CFPRESPONSESTATUS
state ALLOWED_CFP: PROVIDER
state GET_CFP : CONSUMER

[*] - -> CREATE_PARTSSTRUCTUREARTS: 6.PutPartsStructure
CREATE_PARTSSTRUCTUREARTS - ->  REQUEST_TRADE: 7.PutTradeRequest
REQUEST_TRADE - ->  RESPONSE_TRADE: 13.PutTradeResponse

[*] - -> SET_CFP: 15.PutCfp
SET_CFP - ->  COMPLETED_CFPRESPONSESTATUS
COMPLETED_CFPRESPONSESTATUS - ->  ALLOWED_CFP: allowed cfp

ALLOWED_CFP - -> GET_CFP: 14.GetCfp
RESPONSE_TRADE - -> GET_CFP: 14.GetCfp

GET_CFP - ->[*]
@enduml

PlantUML version 1.2022.7(Tue Aug 23 02:01:30 JST 2022)
(GPL source distribution)
Java Runtime: OpenJDK Runtime Environment
JVM: OpenJDK 64-Bit Server VM
Default Encoding: UTF-8
Language: ja
Country: JP
--></g></svg>