<?xml version="1.0" encoding="UTF-8" standalone="no"?>
<!DOCTYPE svg PUBLIC "-//W3C//DTD SVG 1.1//EN"
 "http://www.w3.org/Graphics/SVG/1.1/DTD/svg11.dtd">
<!-- Generated by graphviz version 2.40.1 (20161225.0304)
 -->
<!-- Title: public.cfp_infomation Pages: 1 -->
<svg width="852pt" height="1102pt"
 viewBox="0.00 0.00 852.00 1102.00" xmlns="http://www.w3.org/2000/svg" xmlns:xlink="http://www.w3.org/1999/xlink">
<g id="graph0" class="graph" transform="scale(1 1) rotate(0) translate(4 1098)">
<title>public.cfp_infomation</title>
<polygon fill="#ffffff" stroke="transparent" points="-4,4 -4,-1098 848,-1098 848,4 -4,4"/>
<!-- public.cfp_infomation -->
<g id="node1" class="node">
<title>public.cfp_infomation</title>
<polygon fill="#efefef" stroke="transparent" points="488,-1012.5 488,-1047.5 798,-1047.5 798,-1012.5 488,-1012.5"/>
<polygon fill="none" stroke="#000000" points="488,-1012.5 488,-1047.5 798,-1047.5 798,-1012.5 488,-1012.5"/>
<text text-anchor="start" x="494.6961" y="-1025.3" font-family="Arial Bold" font-size="18.00" fill="#000000">public.cfp_infomation</text>
<text text-anchor="start" x="663.7359" y="-1025.3" font-family="Arial" font-size="14.00" fill="#000000">    </text>
<text text-anchor="start" x="697.9407" y="-1025.3" font-family="Arial" font-size="14.00" fill="#666666">[BASE TABLE]</text>
<polygon fill="none" stroke="#000000" points="488,-982.5 488,-1012.5 798,-1012.5 798,-982.5 488,-982.5"/>
<text text-anchor="start" x="495" y="-993.9" font-family="Arial" font-size="14.00" fill="#000000">trace_id </text>
<text text-anchor="start" x="548.6788" y="-993.9" font-family="Arial" font-size="14.00" fill="#666666">[varchar(256)]</text>
<polygon fill="none" stroke="#000000" points="488,-952.5 488,-982.5 798,-982.5 798,-952.5 488,-952.5"/>
<text text-anchor="start" x="495" y="-963.9" font-family="Arial" font-size="14.00" fill="#000000">deleted_at </text>
<text text-anchor="start" x="564.2566" y="-963.9" font-family="Arial" font-size="14.00" fill="#666666">[timestamp without time zone]</text>
<polygon fill="none" stroke="#000000" points="488,-922.5 488,-952.5 798,-952.5 798,-922.5 488,-922.5"/>
<text text-anchor="start" x="495" y="-933.9" font-family="Arial" font-size="14.00" fill="#000000">created_at </text>
<text text-anchor="start" x="565.028" y="-933.9" font-family="Arial" font-size="14.00" fill="#666666">[timestamp without time zone]</text>
<polygon fill="none" stroke="#000000" points="488,-892.5 488,-922.5 798,-922.5 798,-892.5 488,-892.5"/>
<text text-anchor="start" x="495" y="-903.9" font-family="Arial" font-size="14.00" fill="#000000">created_user_id </text>
<text text-anchor="start" x="599.2524" y="-903.9" font-family="Arial" font-size="14.00" fill="#666666">[text]</text>
<polygon fill="none" stroke="#000000" points="488,-862.5 488,-892.5 798,-892.5 798,-862.5 488,-862.5"/>
<text text-anchor="start" x="495" y="-873.9" font-family="Arial" font-size="14.00" fill="#000000">updated_at </text>
<text text-anchor="start" x="568.9326" y="-873.9" font-family="Arial" font-size="14.00" fill="#666666">[timestamp without time zone]</text>
<polygon fill="none" stroke="#000000" points="488,-832.5 488,-862.5 798,-862.5 798,-832.5 488,-832.5"/>
<text text-anchor="start" x="495" y="-843.9" font-family="Arial" font-size="14.00" fill="#000000">updated_user_id </text>
<text text-anchor="start" x="603.157" y="-843.9" font-family="Arial" font-size="14.00" fill="#666666">[text]</text>
<polygon fill="none" stroke="#000000" points="488,-802.5 488,-832.5 798,-832.5 798,-802.5 488,-802.5"/>
<text text-anchor="start" x="495" y="-813.9" font-family="Arial" font-size="14.00" fill="#000000">cfp_id </text>
<text text-anchor="start" x="536.2356" y="-813.9" font-family="Arial" font-size="14.00" fill="#666666">[varchar(256)]</text>
<polygon fill="none" stroke="#000000" points="488,-772.5 488,-802.5 798,-802.5 798,-772.5 488,-772.5"/>
<text text-anchor="start" x="495" y="-783.9" font-family="Arial" font-size="14.00" fill="#000000">ghg_emission </text>
<text text-anchor="start" x="585.2426" y="-783.9" font-family="Arial" font-size="14.00" fill="#666666">[numeric]</text>
<polygon fill="none" stroke="#000000" points="488,-742.5 488,-772.5 798,-772.5 798,-742.5 488,-742.5"/>
<text text-anchor="start" x="495" y="-753.9" font-family="Arial" font-size="14.00" fill="#000000">ghg_declared_unit </text>
<text text-anchor="start" x="614.0462" y="-753.9" font-family="Arial" font-size="14.00" fill="#666666">[varchar(20)]</text>
<polygon fill="none" stroke="#000000" points="488,-712.5 488,-742.5 798,-742.5 798,-712.5 488,-712.5"/>
<text text-anchor="start" x="495" y="-723.9" font-family="Arial" font-size="14.00" fill="#000000">cfp_type </text>
<text text-anchor="start" x="551.8022" y="-723.9" font-family="Arial" font-size="14.00" fill="#666666">[varchar(20)]</text>
<polygon fill="none" stroke="#000000" points="488,-682.5 488,-712.5 798,-712.5 798,-682.5 488,-682.5"/>
<text text-anchor="start" x="495" y="-693.9" font-family="Arial" font-size="14.00" fill="#000000">dqr_type </text>
<text text-anchor="start" x="553.3548" y="-693.9" font-family="Arial" font-size="14.00" fill="#666666">[varchar(256)]</text>
<polygon fill="none" stroke="#000000" points="488,-652.5 488,-682.5 798,-682.5 798,-652.5 488,-652.5"/>
<text text-anchor="start" x="495" y="-663.9" font-family="Arial" font-size="14.00" fill="#000000">te_r </text>
<text text-anchor="start" x="523.007" y="-663.9" font-family="Arial" font-size="14.00" fill="#666666">[numeric]</text>
<polygon fill="none" stroke="#000000" points="488,-622.5 488,-652.5 798,-652.5 798,-622.5 488,-622.5"/>
<text text-anchor="start" x="495" y="-633.9" font-family="Arial" font-size="14.00" fill="#000000">ge_r </text>
<text text-anchor="start" x="526.899" y="-633.9" font-family="Arial" font-size="14.00" fill="#666666">[numeric]</text>
<polygon fill="none" stroke="#000000" points="488,-592.5 488,-622.5 798,-622.5 798,-592.5 488,-592.5"/>
<text text-anchor="start" x="495" y="-603.9" font-family="Arial" font-size="14.00" fill="#000000">ti_r </text>
<text text-anchor="start" x="518.331" y="-603.9" font-family="Arial" font-size="14.00" fill="#666666">[numeric]</text>
<polygon fill="none" stroke="#000000" stroke-width="3" points="486.5,-591.5 486.5,-1049.5 799.5,-1049.5 799.5,-591.5 486.5,-591.5"/>
</g>
<!-- public.parts -->
<g id="node2" class="node">
<title>public.parts</title>
<polygon fill="#efefef" stroke="transparent" points="491,-432.5 491,-467.5 794,-467.5 794,-432.5 491,-432.5"/>
<polygon fill="none" stroke="#000000" points="491,-432.5 491,-467.5 794,-467.5 794,-432.5 491,-432.5"/>
<text text-anchor="start" x="532.708" y="-445.3" font-family="Arial Bold" font-size="18.00" fill="#000000">public.parts</text>
<text text-anchor="start" x="624.724" y="-445.3" font-family="Arial" font-size="14.00" fill="#000000">    </text>
<text text-anchor="start" x="658.9288" y="-445.3" font-family="Arial" font-size="14.00" fill="#666666">[BASE TABLE]</text>
<polygon fill="none" stroke="#000000" points="491,-402.5 491,-432.5 794,-432.5 794,-402.5 491,-402.5"/>
<text text-anchor="start" x="498" y="-413.9" font-family="Arial" font-size="14.00" fill="#000000">trace_id    </text>
<text text-anchor="start" x="581.993" y="-413.9" font-family="Arial" font-size="14.00" fill="#666666">[varchar(256)]</text>
<polygon fill="none" stroke="#000000" points="491,-372.5 491,-402.5 794,-402.5 794,-372.5 491,-372.5"/>
<text text-anchor="start" x="498" y="-383.9" font-family="Arial" font-size="14.00" fill="#000000">operator_id    </text>
<text text-anchor="start" x="603.0014" y="-383.9" font-family="Arial" font-size="14.00" fill="#666666">[varchar(256)]</text>
<polygon fill="none" stroke="#000000" points="491,-342.5 491,-372.5 794,-372.5 794,-342.5 491,-342.5"/>
<text text-anchor="start" x="498" y="-353.9" font-family="Arial" font-size="14.00" fill="#000000">plant_id    </text>
<text text-anchor="start" x="581.2216" y="-353.9" font-family="Arial" font-size="14.00" fill="#666666">[varchar(256)]</text>
<polygon fill="none" stroke="#000000" points="491,-312.5 491,-342.5 794,-342.5 794,-312.5 491,-312.5"/>
<text text-anchor="start" x="498" y="-323.9" font-family="Arial" font-size="14.00" fill="#000000">parts_name    </text>
<text text-anchor="start" x="606.1122" y="-323.9" font-family="Arial" font-size="14.00" fill="#666666">[varchar(256)]</text>
<polygon fill="none" stroke="#000000" points="491,-282.5 491,-312.5 794,-312.5 794,-282.5 491,-282.5"/>
<text text-anchor="start" x="498" y="-293.9" font-family="Arial" font-size="14.00" fill="#000000">deleted_at    </text>
<text text-anchor="start" x="597.5708" y="-293.9" font-family="Arial" font-size="14.00" fill="#666666">[timestamp without time zone]</text>
<polygon fill="none" stroke="#000000" points="491,-252.5 491,-282.5 794,-282.5 794,-252.5 491,-252.5"/>
<text text-anchor="start" x="498" y="-263.9" font-family="Arial" font-size="14.00" fill="#000000">created_at    </text>
<text text-anchor="start" x="598.3422" y="-263.9" font-family="Arial" font-size="14.00" fill="#666666">[timestamp without time zone]</text>
<polygon fill="none" stroke="#000000" points="491,-222.5 491,-252.5 794,-252.5 794,-222.5 491,-222.5"/>
<text text-anchor="start" x="498" y="-233.9" font-family="Arial" font-size="14.00" fill="#000000">created_user_id    </text>
<text text-anchor="start" x="632.5666" y="-233.9" font-family="Arial" font-size="14.00" fill="#666666">[text]</text>
<polygon fill="none" stroke="#000000" points="491,-192.5 491,-222.5 794,-222.5 794,-192.5 491,-192.5"/>
<text text-anchor="start" x="497.8065" y="-203.9" font-family="Arial" font-size="14.00" fill="#000000">updated_at    </text>
<text text-anchor="start" x="602.0533" y="-203.9" font-family="Arial" font-size="14.00" fill="#666666">[timestamp without time zone]</text>
<polygon fill="none" stroke="#000000" points="491,-162.5 491,-192.5 794,-192.5 794,-162.5 491,-162.5"/>
<text text-anchor="start" x="498" y="-173.9" font-family="Arial" font-size="14.00" fill="#000000">updated_user_id    </text>
<text text-anchor="start" x="636.4712" y="-173.9" font-family="Arial" font-size="14.00" fill="#666666">[text]</text>
<polygon fill="none" stroke="#000000" points="491,-132.5 491,-162.5 794,-162.5 794,-132.5 491,-132.5"/>
<text text-anchor="start" x="498" y="-143.9" font-family="Arial" font-size="14.00" fill="#000000">support_parts_name    </text>
<text text-anchor="start" x="660.5764" y="-143.9" font-family="Arial" font-size="14.00" fill="#666666">[varchar(256)]</text>
<polygon fill="none" stroke="#000000" points="491,-102.5 491,-132.5 794,-132.5 794,-102.5 491,-102.5"/>
<text text-anchor="start" x="498" y="-113.9" font-family="Arial" font-size="14.00" fill="#000000">terminated_flag    </text>
<text text-anchor="start" x="628.6718" y="-113.9" font-family="Arial" font-size="14.00" fill="#666666">[boolean]</text>
<polygon fill="none" stroke="#000000" points="491,-72.5 491,-102.5 794,-102.5 794,-72.5 491,-72.5"/>
<text text-anchor="start" x="498" y="-83.9" font-family="Arial" font-size="14.00" fill="#000000">amount_required    </text>
<text text-anchor="start" x="638.0098" y="-83.9" font-family="Arial" font-size="14.00" fill="#666666">[double precision]</text>
<polygon fill="none" stroke="#000000" points="491,-42.5 491,-72.5 794,-72.5 794,-42.5 491,-42.5"/>
<text text-anchor="start" x="498" y="-53.9" font-family="Arial" font-size="14.00" fill="#000000">amount_required_unit    </text>
<text text-anchor="start" x="668.3548" y="-53.9" font-family="Arial" font-size="14.00" fill="#666666">[varchar(256)]</text>
</g>
<!-- public.cfp_infomation&#45;&gt;public.parts -->
<g id="edge1" class="edge">
<title>public.cfp_infomation:trace_id&#45;&gt;public.parts:trace_id</title>
<path fill="none" stroke="#000000" d="M477.9328,-996.1364C390.2911,-971.4562 423.8135,-619.1805 488,-547 578.9972,-444.6696 703.0028,-613.3304 794,-511 821.6143,-479.9466 835.5556,-417.5 794,-417.5"/>
<polygon fill="#000000" stroke="#000000" points="478.0905,-996.1577 487.3959,-1001.9593 483.0452,-996.8288 488,-997.5 488,-997.5 488,-997.5 483.0452,-996.8288 488.6041,-993.0407 478.0905,-996.1577 478.0905,-996.1577"/>
<text text-anchor="start" x="6.771" y="-1007.5" font-family="Arial" font-size="10.00" fill="#000000">FOREIGN KEY (trace_id) REFERENCES parts(trace_id) ON UPDATE CASCADE ON DELETE CASCADE</text>
</g>
</g>
</svg>
