<?xml version="1.0" encoding="UTF-8" standalone="no"?>
<!DOCTYPE svg PUBLIC "-//W3C//DTD SVG 1.1//EN"
 "http://www.w3.org/Graphics/SVG/1.1/DTD/svg11.dtd">
<!-- Generated by graphviz version 2.40.1 (20161225.0304)
 -->
<!-- Title: public.cidrs Pages: 1 -->
<svg width="842pt" height="772pt"
 viewBox="0.00 0.00 841.50 772.00" xmlns="http://www.w3.org/2000/svg" xmlns:xlink="http://www.w3.org/1999/xlink">
<g id="graph0" class="graph" transform="scale(1 1) rotate(0) translate(4 768)">
<title>public.cidrs</title>
<polygon fill="#ffffff" stroke="transparent" points="-4,4 -4,-768 837.5,-768 837.5,4 -4,4"/>
<!-- public.cidrs -->
<g id="node1" class="node">
<title>public.cidrs</title>
<polygon fill="#efefef" stroke="transparent" points="503,-682.5 503,-717.5 776,-717.5 776,-682.5 503,-682.5"/>
<polygon fill="none" stroke="#000000" points="503,-682.5 503,-717.5 776,-717.5 776,-682.5 503,-682.5"/>
<text text-anchor="start" x="530.7151" y="-695.3" font-family="Arial Bold" font-size="18.00" fill="#000000">public.cidrs</text>
<text text-anchor="start" x="620.7169" y="-695.3" font-family="Arial" font-size="14.00" fill="#000000">    </text>
<text text-anchor="start" x="654.9217" y="-695.3" font-family="Arial" font-size="14.00" fill="#666666">[BASE TABLE]</text>
<polygon fill="none" stroke="#000000" points="503,-652.5 503,-682.5 776,-682.5 776,-652.5 503,-652.5"/>
<text text-anchor="start" x="510" y="-663.9" font-family="Arial" font-size="14.00" fill="#000000">cidr </text>
<text text-anchor="start" x="536.4404" y="-663.9" font-family="Arial" font-size="14.00" fill="#666666">[varchar(18)]</text>
<polygon fill="none" stroke="#000000" points="503,-622.5 503,-652.5 776,-652.5 776,-622.5 503,-622.5"/>
<text text-anchor="start" x="510" y="-633.9" font-family="Arial" font-size="14.00" fill="#000000">api_key </text>
<text text-anchor="start" x="562.1276" y="-633.9" font-family="Arial" font-size="14.00" fill="#666666">[varchar(256)]</text>
<polygon fill="none" stroke="#000000" points="503,-592.5 503,-622.5 776,-622.5 776,-592.5 503,-592.5"/>
<text text-anchor="start" x="510" y="-603.9" font-family="Arial" font-size="14.00" fill="#000000">deleted_at </text>
<text text-anchor="start" x="579.2566" y="-603.9" font-family="Arial" font-size="14.00" fill="#666666">[timestamp without time zone]</text>
<polygon fill="none" stroke="#000000" points="503,-562.5 503,-592.5 776,-592.5 776,-562.5 503,-562.5"/>
<text text-anchor="start" x="510" y="-573.9" font-family="Arial" font-size="14.00" fill="#000000">created_at </text>
<text text-anchor="start" x="580.028" y="-573.9" font-family="Arial" font-size="14.00" fill="#666666">[timestamp without time zone]</text>
<polygon fill="none" stroke="#000000" points="503,-532.5 503,-562.5 776,-562.5 776,-532.5 503,-532.5"/>
<text text-anchor="start" x="510" y="-543.9" font-family="Arial" font-size="14.00" fill="#000000">created_user_id </text>
<text text-anchor="start" x="614.2524" y="-543.9" font-family="Arial" font-size="14.00" fill="#666666">[text]</text>
<polygon fill="none" stroke="#000000" points="503,-502.5 503,-532.5 776,-532.5 776,-502.5 503,-502.5"/>
<text text-anchor="start" x="509.9636" y="-513.9" font-family="Arial" font-size="14.00" fill="#000000">updated_at </text>
<text text-anchor="start" x="583.8962" y="-513.9" font-family="Arial" font-size="14.00" fill="#666666">[timestamp without time zone]</text>
<polygon fill="none" stroke="#000000" points="503,-472.5 503,-502.5 776,-502.5 776,-472.5 503,-472.5"/>
<text text-anchor="start" x="510" y="-483.9" font-family="Arial" font-size="14.00" fill="#000000">updated_user_id </text>
<text text-anchor="start" x="618.157" y="-483.9" font-family="Arial" font-size="14.00" fill="#666666">[text]</text>
<polygon fill="none" stroke="#000000" stroke-width="3" points="501,-471.5 501,-719.5 777,-719.5 777,-471.5 501,-471.5"/>
</g>
<!-- public.api_keys -->
<g id="node2" class="node">
<title>public.api_keys</title>
<polygon fill="#efefef" stroke="transparent" points="488,-312.5 488,-347.5 791,-347.5 791,-312.5 488,-312.5"/>
<polygon fill="none" stroke="#000000" points="488,-312.5 488,-347.5 791,-347.5 791,-312.5 488,-312.5"/>
<text text-anchor="start" x="514.2019" y="-325.3" font-family="Arial Bold" font-size="18.00" fill="#000000">public.api_keys</text>
<text text-anchor="start" x="637.2301" y="-325.3" font-family="Arial" font-size="14.00" fill="#000000">    </text>
<text text-anchor="start" x="671.4349" y="-325.3" font-family="Arial" font-size="14.00" fill="#666666">[BASE TABLE]</text>
<polygon fill="none" stroke="#000000" points="488,-282.5 488,-312.5 791,-312.5 791,-282.5 488,-282.5"/>
<text text-anchor="start" x="495" y="-293.9" font-family="Arial" font-size="14.00" fill="#000000">id    </text>
<text text-anchor="start" x="540.094" y="-293.9" font-family="Arial" font-size="14.00" fill="#666666">[varchar(256)]</text>
<polygon fill="none" stroke="#000000" points="488,-252.5 488,-282.5 791,-282.5 791,-252.5 488,-252.5"/>
<text text-anchor="start" x="495" y="-263.9" font-family="Arial" font-size="14.00" fill="#000000">api_key    </text>
<text text-anchor="start" x="577.4418" y="-263.9" font-family="Arial" font-size="14.00" fill="#666666">[varchar(256)]</text>
<polygon fill="none" stroke="#000000" points="488,-222.5 488,-252.5 791,-252.5 791,-222.5 488,-222.5"/>
<text text-anchor="start" x="495" y="-233.9" font-family="Arial" font-size="14.00" fill="#000000">application_name    </text>
<text text-anchor="start" x="638.9018" y="-233.9" font-family="Arial" font-size="14.00" fill="#666666">[varchar(256)]</text>
<polygon fill="none" stroke="#000000" points="488,-192.5 488,-222.5 791,-222.5 791,-192.5 488,-192.5"/>
<text text-anchor="start" x="495" y="-203.9" font-family="Arial" font-size="14.00" fill="#000000">application_attribute    </text>
<text text-anchor="start" x="654.4628" y="-203.9" font-family="Arial" font-size="14.00" fill="#666666">[varchar(256)]</text>
<polygon fill="none" stroke="#000000" points="488,-162.5 488,-192.5 791,-192.5 791,-162.5 488,-162.5"/>
<text text-anchor="start" x="495" y="-173.9" font-family="Arial" font-size="14.00" fill="#000000">deleted_at    </text>
<text text-anchor="start" x="594.5708" y="-173.9" font-family="Arial" font-size="14.00" fill="#666666">[timestamp without time zone]</text>
<polygon fill="none" stroke="#000000" points="488,-132.5 488,-162.5 791,-162.5 791,-132.5 488,-132.5"/>
<text text-anchor="start" x="495" y="-143.9" font-family="Arial" font-size="14.00" fill="#000000">created_at    </text>
<text text-anchor="start" x="595.3422" y="-143.9" font-family="Arial" font-size="14.00" fill="#666666">[timestamp without time zone]</text>
<polygon fill="none" stroke="#000000" points="488,-102.5 488,-132.5 791,-132.5 791,-102.5 488,-102.5"/>
<text text-anchor="start" x="495" y="-113.9" font-family="Arial" font-size="14.00" fill="#000000">created_user_id    </text>
<text text-anchor="start" x="629.5666" y="-113.9" font-family="Arial" font-size="14.00" fill="#666666">[text]</text>
<polygon fill="none" stroke="#000000" points="488,-72.5 488,-102.5 791,-102.5 791,-72.5 488,-72.5"/>
<text text-anchor="start" x="494.8065" y="-83.9" font-family="Arial" font-size="14.00" fill="#000000">updated_at    </text>
<text text-anchor="start" x="599.0533" y="-83.9" font-family="Arial" font-size="14.00" fill="#666666">[timestamp without time zone]</text>
<polygon fill="none" stroke="#000000" points="488,-42.5 488,-72.5 791,-72.5 791,-42.5 488,-42.5"/>
<text text-anchor="start" x="495" y="-53.9" font-family="Arial" font-size="14.00" fill="#000000">updated_user_id    </text>
<text text-anchor="start" x="633.4712" y="-53.9" font-family="Arial" font-size="14.00" fill="#666666">[text]</text>
</g>
<!-- public.cidrs&#45;&gt;public.api_keys -->
<g id="edge1" class="edge">
<title>public.cidrs:api_key&#45;&gt;public.api_keys:api_key</title>
<path fill="none" stroke="#000000" d="M492.7674,-635.5093C419.6008,-606.3863 409.2461,-267.5 488,-267.5"/>
<polygon fill="#000000" stroke="#000000" points="493.184,-635.5903 502.1406,-641.9172 498.092,-636.5451 503,-637.5 503,-637.5 503,-637.5 498.092,-636.5451 503.8594,-633.0828 493.184,-635.5903 493.184,-635.5903"/>
<text text-anchor="start" x="7.2645" y="-647.5" font-family="Arial" font-size="10.00" fill="#000000">FOREIGN KEY (api_key) REFERENCES api_keys(api_key) ON UPDATE CASCADE ON DELETE CASCADE</text>
</g>
</g>
</svg>
