<?xml version="1.0" encoding="UTF-8" standalone="no"?>
<!DOCTYPE svg PUBLIC "-//W3C//DTD SVG 1.1//EN"
 "http://www.w3.org/Graphics/SVG/1.1/DTD/svg11.dtd">
<!-- Generated by graphviz version 2.40.1 (20161225.0304)
 -->
<!-- Title: public.plants Pages: 1 -->
<svg width="958pt" height="1469pt"
 viewBox="0.00 0.00 957.50 1469.00" xmlns="http://www.w3.org/2000/svg" xmlns:xlink="http://www.w3.org/1999/xlink">
<g id="graph0" class="graph" transform="scale(1 1) rotate(0) translate(4 1465)">
<title>public.plants</title>
<polygon fill="#ffffff" stroke="transparent" points="-4,4 -4,-1465 953.5,-1465 953.5,4 -4,4"/>
<!-- public.plants -->
<g id="node1" class="node">
<title>public.plants</title>
<polygon fill="#efefef" stroke="transparent" points="619,-832.5 619,-867.5 892,-867.5 892,-832.5 619,-832.5"/>
<polygon fill="none" stroke="#000000" points="619,-832.5 619,-867.5 892,-867.5 892,-832.5 619,-832.5"/>
<text text-anchor="start" x="641.7039" y="-845.3" font-family="Arial Bold" font-size="18.00" fill="#000000">public.plants</text>
<text text-anchor="start" x="741.7281" y="-845.3" font-family="Arial" font-size="14.00" fill="#000000">    </text>
<text text-anchor="start" x="775.9329" y="-845.3" font-family="Arial" font-size="14.00" fill="#666666">[BASE TABLE]</text>
<polygon fill="none" stroke="#000000" points="619,-802.5 619,-832.5 892,-832.5 892,-802.5 619,-802.5"/>
<text text-anchor="start" x="626" y="-813.9" font-family="Arial" font-size="14.00" fill="#000000">plant_id </text>
<text text-anchor="start" x="678.9074" y="-813.9" font-family="Arial" font-size="14.00" fill="#666666">[varchar(256)]</text>
<polygon fill="none" stroke="#000000" points="619,-772.5 619,-802.5 892,-802.5 892,-772.5 619,-772.5"/>
<text text-anchor="start" x="626" y="-783.9" font-family="Arial" font-size="14.00" fill="#000000">operator_id </text>
<text text-anchor="start" x="700.6872" y="-783.9" font-family="Arial" font-size="14.00" fill="#666666">[varchar(256)]</text>
<polygon fill="none" stroke="#000000" points="619,-742.5 619,-772.5 892,-772.5 892,-742.5 619,-742.5"/>
<text text-anchor="start" x="626" y="-753.9" font-family="Arial" font-size="14.00" fill="#000000">plant_name </text>
<text text-anchor="start" x="703.0266" y="-753.9" font-family="Arial" font-size="14.00" fill="#666666">[varchar(256)]</text>
<polygon fill="none" stroke="#000000" points="619,-712.5 619,-742.5 892,-742.5 892,-712.5 619,-712.5"/>
<text text-anchor="start" x="626" y="-723.9" font-family="Arial" font-size="14.00" fill="#000000">plant_address </text>
<text text-anchor="start" x="717.8092" y="-723.9" font-family="Arial" font-size="14.00" fill="#666666">[varchar(256)]</text>
<polygon fill="none" stroke="#000000" points="619,-682.5 619,-712.5 892,-712.5 892,-682.5 619,-682.5"/>
<text text-anchor="start" x="626" y="-693.9" font-family="Arial" font-size="14.00" fill="#000000">deleted_at </text>
<text text-anchor="start" x="695.2566" y="-693.9" font-family="Arial" font-size="14.00" fill="#666666">[timestamp without time zone]</text>
<polygon fill="none" stroke="#000000" points="619,-652.5 619,-682.5 892,-682.5 892,-652.5 619,-652.5"/>
<text text-anchor="start" x="626" y="-663.9" font-family="Arial" font-size="14.00" fill="#000000">created_at </text>
<text text-anchor="start" x="696.028" y="-663.9" font-family="Arial" font-size="14.00" fill="#666666">[timestamp without time zone]</text>
<polygon fill="none" stroke="#000000" points="619,-622.5 619,-652.5 892,-652.5 892,-622.5 619,-622.5"/>
<text text-anchor="start" x="626" y="-633.9" font-family="Arial" font-size="14.00" fill="#000000">created_user_id </text>
<text text-anchor="start" x="730.2524" y="-633.9" font-family="Arial" font-size="14.00" fill="#666666">[text]</text>
<polygon fill="none" stroke="#000000" points="619,-592.5 619,-622.5 892,-622.5 892,-592.5 619,-592.5"/>
<text text-anchor="start" x="625.9636" y="-603.9" font-family="Arial" font-size="14.00" fill="#000000">updated_at </text>
<text text-anchor="start" x="699.8962" y="-603.9" font-family="Arial" font-size="14.00" fill="#666666">[timestamp without time zone]</text>
<polygon fill="none" stroke="#000000" points="619,-562.5 619,-592.5 892,-592.5 892,-562.5 619,-562.5"/>
<text text-anchor="start" x="626" y="-573.9" font-family="Arial" font-size="14.00" fill="#000000">updated_user_id </text>
<text text-anchor="start" x="734.157" y="-573.9" font-family="Arial" font-size="14.00" fill="#666666">[text]</text>
<polygon fill="none" stroke="#000000" points="619,-532.5 619,-562.5 892,-562.5 892,-532.5 619,-532.5"/>
<text text-anchor="start" x="626" y="-543.9" font-family="Arial" font-size="14.00" fill="#000000">open_plant_id </text>
<text text-anchor="start" x="717.8204" y="-543.9" font-family="Arial" font-size="14.00" fill="#666666">[varchar(26)]</text>
<polygon fill="none" stroke="#000000" points="619,-502.5 619,-532.5 892,-532.5 892,-502.5 619,-502.5"/>
<text text-anchor="start" x="626" y="-513.9" font-family="Arial" font-size="14.00" fill="#000000">global_plant_id </text>
<text text-anchor="start" x="724.0336" y="-513.9" font-family="Arial" font-size="14.00" fill="#666666">[varchar(256)]</text>
<polygon fill="none" stroke="#000000" stroke-width="3" points="617,-501.5 617,-869.5 893,-869.5 893,-501.5 617,-501.5"/>
</g>
<!-- public.operators -->
<g id="node3" class="node">
<title>public.operators</title>
<polygon fill="#efefef" stroke="transparent" points="604,-342.5 604,-377.5 907,-377.5 907,-342.5 604,-342.5"/>
<polygon fill="none" stroke="#000000" points="604,-342.5 604,-377.5 907,-377.5 907,-342.5 604,-342.5"/>
<text text-anchor="start" x="627.7026" y="-355.3" font-family="Arial Bold" font-size="18.00" fill="#000000">public.operators</text>
<text text-anchor="start" x="755.7294" y="-355.3" font-family="Arial" font-size="14.00" fill="#000000">    </text>
<text text-anchor="start" x="789.9342" y="-355.3" font-family="Arial" font-size="14.00" fill="#666666">[BASE TABLE]</text>
<polygon fill="none" stroke="#000000" points="604,-312.5 604,-342.5 907,-342.5 907,-312.5 604,-312.5"/>
<text text-anchor="start" x="611" y="-323.9" font-family="Arial" font-size="14.00" fill="#000000">operator_id    </text>
<text text-anchor="start" x="716.0014" y="-323.9" font-family="Arial" font-size="14.00" fill="#666666">[varchar(256)]</text>
<polygon fill="none" stroke="#000000" points="604,-282.5 604,-312.5 907,-312.5 907,-282.5 604,-282.5"/>
<text text-anchor="start" x="611" y="-293.9" font-family="Arial" font-size="14.00" fill="#000000">operator_name    </text>
<text text-anchor="start" x="740.1206" y="-293.9" font-family="Arial" font-size="14.00" fill="#666666">[varchar(256)]</text>
<polygon fill="none" stroke="#000000" points="604,-252.5 604,-282.5 907,-282.5 907,-252.5 604,-252.5"/>
<text text-anchor="start" x="611" y="-263.9" font-family="Arial" font-size="14.00" fill="#000000">deleted_at    </text>
<text text-anchor="start" x="710.5708" y="-263.9" font-family="Arial" font-size="14.00" fill="#666666">[timestamp without time zone]</text>
<polygon fill="none" stroke="#000000" points="604,-222.5 604,-252.5 907,-252.5 907,-222.5 604,-222.5"/>
<text text-anchor="start" x="611" y="-233.9" font-family="Arial" font-size="14.00" fill="#000000">created_at    </text>
<text text-anchor="start" x="711.3422" y="-233.9" font-family="Arial" font-size="14.00" fill="#666666">[timestamp without time zone]</text>
<polygon fill="none" stroke="#000000" points="604,-192.5 604,-222.5 907,-222.5 907,-192.5 604,-192.5"/>
<text text-anchor="start" x="611" y="-203.9" font-family="Arial" font-size="14.00" fill="#000000">created_user_id    </text>
<text text-anchor="start" x="745.5666" y="-203.9" font-family="Arial" font-size="14.00" fill="#666666">[text]</text>
<polygon fill="none" stroke="#000000" points="604,-162.5 604,-192.5 907,-192.5 907,-162.5 604,-162.5"/>
<text text-anchor="start" x="610.8065" y="-173.9" font-family="Arial" font-size="14.00" fill="#000000">updated_at    </text>
<text text-anchor="start" x="715.0533" y="-173.9" font-family="Arial" font-size="14.00" fill="#666666">[timestamp without time zone]</text>
<polygon fill="none" stroke="#000000" points="604,-132.5 604,-162.5 907,-162.5 907,-132.5 604,-132.5"/>
<text text-anchor="start" x="611" y="-143.9" font-family="Arial" font-size="14.00" fill="#000000">updated_user_id    </text>
<text text-anchor="start" x="749.4712" y="-143.9" font-family="Arial" font-size="14.00" fill="#666666">[text]</text>
<polygon fill="none" stroke="#000000" points="604,-102.5 604,-132.5 907,-132.5 907,-102.5 604,-102.5"/>
<text text-anchor="start" x="611" y="-113.9" font-family="Arial" font-size="14.00" fill="#000000">operator_address    </text>
<text text-anchor="start" x="754.9032" y="-113.9" font-family="Arial" font-size="14.00" fill="#666666">[varchar(256)]</text>
<polygon fill="none" stroke="#000000" points="604,-72.5 604,-102.5 907,-102.5 907,-72.5 604,-72.5"/>
<text text-anchor="start" x="611" y="-83.9" font-family="Arial" font-size="14.00" fill="#000000">open_operator_id    </text>
<text text-anchor="start" x="754.9144" y="-83.9" font-family="Arial" font-size="14.00" fill="#666666">[varchar(20)]</text>
<polygon fill="none" stroke="#000000" points="604,-42.5 604,-72.5 907,-72.5 907,-42.5 604,-42.5"/>
<text text-anchor="start" x="611" y="-53.9" font-family="Arial" font-size="14.00" fill="#000000">global_operator_id    </text>
<text text-anchor="start" x="761.1276" y="-53.9" font-family="Arial" font-size="14.00" fill="#666666">[varchar(256)]</text>
</g>
<!-- public.plants&#45;&gt;public.operators -->
<g id="edge2" class="edge">
<title>public.plants:operator_id&#45;&gt;public.operators:operator_id</title>
<path fill="none" stroke="#000000" d="M609.102,-786.0123C515.8566,-757.4603 505.1193,-327.5 604,-327.5"/>
<polygon fill="#000000" stroke="#000000" points="609.1111,-786.0136 618.3311,-791.95 614.0555,-786.7568 619,-787.5 619,-787.5 619,-787.5 614.0555,-786.7568 619.6689,-783.05 609.1111,-786.0136 609.1111,-786.0136"/>
<text text-anchor="start" x="87.762" y="-797.5" font-family="Arial" font-size="10.00" fill="#000000">FOREIGN KEY (operator_id) REFERENCES operators(operator_id) ON UPDATE CASCADE ON DELETE CASCADE</text>
</g>
<!-- public.parts -->
<g id="node2" class="node">
<title>public.parts</title>
<polygon fill="#efefef" stroke="transparent" points="604,-1382.5 604,-1417.5 907,-1417.5 907,-1382.5 604,-1382.5"/>
<polygon fill="none" stroke="#000000" points="604,-1382.5 604,-1417.5 907,-1417.5 907,-1382.5 604,-1382.5"/>
<text text-anchor="start" x="645.708" y="-1395.3" font-family="Arial Bold" font-size="18.00" fill="#000000">public.parts</text>
<text text-anchor="start" x="737.724" y="-1395.3" font-family="Arial" font-size="14.00" fill="#000000">    </text>
<text text-anchor="start" x="771.9288" y="-1395.3" font-family="Arial" font-size="14.00" fill="#666666">[BASE TABLE]</text>
<polygon fill="none" stroke="#000000" points="604,-1352.5 604,-1382.5 907,-1382.5 907,-1352.5 604,-1352.5"/>
<text text-anchor="start" x="611" y="-1363.9" font-family="Arial" font-size="14.00" fill="#000000">trace_id    </text>
<text text-anchor="start" x="694.993" y="-1363.9" font-family="Arial" font-size="14.00" fill="#666666">[varchar(256)]</text>
<polygon fill="none" stroke="#000000" points="604,-1322.5 604,-1352.5 907,-1352.5 907,-1322.5 604,-1322.5"/>
<text text-anchor="start" x="611" y="-1333.9" font-family="Arial" font-size="14.00" fill="#000000">operator_id    </text>
<text text-anchor="start" x="716.0014" y="-1333.9" font-family="Arial" font-size="14.00" fill="#666666">[varchar(256)]</text>
<polygon fill="none" stroke="#000000" points="604,-1292.5 604,-1322.5 907,-1322.5 907,-1292.5 604,-1292.5"/>
<text text-anchor="start" x="611" y="-1303.9" font-family="Arial" font-size="14.00" fill="#000000">plant_id    </text>
<text text-anchor="start" x="694.2216" y="-1303.9" font-family="Arial" font-size="14.00" fill="#666666">[varchar(256)]</text>
<polygon fill="none" stroke="#000000" points="604,-1262.5 604,-1292.5 907,-1292.5 907,-1262.5 604,-1262.5"/>
<text text-anchor="start" x="611" y="-1273.9" font-family="Arial" font-size="14.00" fill="#000000">parts_name    </text>
<text text-anchor="start" x="719.1122" y="-1273.9" font-family="Arial" font-size="14.00" fill="#666666">[varchar(256)]</text>
<polygon fill="none" stroke="#000000" points="604,-1232.5 604,-1262.5 907,-1262.5 907,-1232.5 604,-1232.5"/>
<text text-anchor="start" x="611" y="-1243.9" font-family="Arial" font-size="14.00" fill="#000000">deleted_at    </text>
<text text-anchor="start" x="710.5708" y="-1243.9" font-family="Arial" font-size="14.00" fill="#666666">[timestamp without time zone]</text>
<polygon fill="none" stroke="#000000" points="604,-1202.5 604,-1232.5 907,-1232.5 907,-1202.5 604,-1202.5"/>
<text text-anchor="start" x="611" y="-1213.9" font-family="Arial" font-size="14.00" fill="#000000">created_at    </text>
<text text-anchor="start" x="711.3422" y="-1213.9" font-family="Arial" font-size="14.00" fill="#666666">[timestamp without time zone]</text>
<polygon fill="none" stroke="#000000" points="604,-1172.5 604,-1202.5 907,-1202.5 907,-1172.5 604,-1172.5"/>
<text text-anchor="start" x="611" y="-1183.9" font-family="Arial" font-size="14.00" fill="#000000">created_user_id    </text>
<text text-anchor="start" x="745.5666" y="-1183.9" font-family="Arial" font-size="14.00" fill="#666666">[text]</text>
<polygon fill="none" stroke="#000000" points="604,-1142.5 604,-1172.5 907,-1172.5 907,-1142.5 604,-1142.5"/>
<text text-anchor="start" x="610.8065" y="-1153.9" font-family="Arial" font-size="14.00" fill="#000000">updated_at    </text>
<text text-anchor="start" x="715.0533" y="-1153.9" font-family="Arial" font-size="14.00" fill="#666666">[timestamp without time zone]</text>
<polygon fill="none" stroke="#000000" points="604,-1112.5 604,-1142.5 907,-1142.5 907,-1112.5 604,-1112.5"/>
<text text-anchor="start" x="611" y="-1123.9" font-family="Arial" font-size="14.00" fill="#000000">updated_user_id    </text>
<text text-anchor="start" x="749.4712" y="-1123.9" font-family="Arial" font-size="14.00" fill="#666666">[text]</text>
<polygon fill="none" stroke="#000000" points="604,-1082.5 604,-1112.5 907,-1112.5 907,-1082.5 604,-1082.5"/>
<text text-anchor="start" x="611" y="-1093.9" font-family="Arial" font-size="14.00" fill="#000000">support_parts_name    </text>
<text text-anchor="start" x="773.5764" y="-1093.9" font-family="Arial" font-size="14.00" fill="#666666">[varchar(256)]</text>
<polygon fill="none" stroke="#000000" points="604,-1052.5 604,-1082.5 907,-1082.5 907,-1052.5 604,-1052.5"/>
<text text-anchor="start" x="611" y="-1063.9" font-family="Arial" font-size="14.00" fill="#000000">terminated_flag    </text>
<text text-anchor="start" x="741.6718" y="-1063.9" font-family="Arial" font-size="14.00" fill="#666666">[boolean]</text>
<polygon fill="none" stroke="#000000" points="604,-1022.5 604,-1052.5 907,-1052.5 907,-1022.5 604,-1022.5"/>
<text text-anchor="start" x="611" y="-1033.9" font-family="Arial" font-size="14.00" fill="#000000">amount_required    </text>
<text text-anchor="start" x="751.0098" y="-1033.9" font-family="Arial" font-size="14.00" fill="#666666">[double precision]</text>
<polygon fill="none" stroke="#000000" points="604,-992.5 604,-1022.5 907,-1022.5 907,-992.5 604,-992.5"/>
<text text-anchor="start" x="611" y="-1003.9" font-family="Arial" font-size="14.00" fill="#000000">amount_required_unit    </text>
<text text-anchor="start" x="781.3548" y="-1003.9" font-family="Arial" font-size="14.00" fill="#666666">[varchar(256)]</text>
</g>
<!-- public.parts&#45;&gt;public.plants -->
<g id="edge1" class="edge">
<title>public.parts:operator_id&#45;&gt;public.plants:operator_id</title>
<path fill="none" stroke="#000000" d="M593.9416,-1336.2016C482.668,-1306.7888 500.195,-787.5 619,-787.5"/>
<polygon fill="#000000" stroke="#000000" points="594.0823,-1336.2197 603.4239,-1341.963 599.0411,-1336.8598 604,-1337.5 604,-1337.5 604,-1337.5 599.0411,-1336.8598 604.5761,-1333.037 594.0823,-1336.2197 594.0823,-1336.2197"/>
<text text-anchor="start" x="6.9705" y="-1347.5" font-family="Arial" font-size="10.00" fill="#000000">FOREIGN KEY (operator_id, plant_id) REFERENCES plants(operator_id, plant_id) ON UPDATE CASCADE ON DELETE CASCADE</text>
</g>
</g>
</svg>
