<?xml version="1.0" encoding="UTF-8" standalone="no"?>
<!DOCTYPE svg PUBLIC "-//W3C//DTD SVG 1.1//EN"
 "http://www.w3.org/Graphics/SVG/1.1/DTD/svg11.dtd">
<!-- Generated by graphviz version 2.40.1 (20161225.0304)
 -->
<!-- Title: public.operators Pages: 1 -->
<svg width="1595pt" height="922pt"
 viewBox="0.00 0.00 1595.00 922.00" xmlns="http://www.w3.org/2000/svg" xmlns:xlink="http://www.w3.org/1999/xlink">
<g id="graph0" class="graph" transform="scale(1 1) rotate(0) translate(4 918)">
<title>public.operators</title>
<polygon fill="#ffffff" stroke="transparent" points="-4,4 -4,-918 1591,-918 1591,4 -4,4"/>
<!-- public.operators -->
<g id="node1" class="node">
<title>public.operators</title>
<polygon fill="#efefef" stroke="transparent" points="657,-345.5 657,-380.5 930,-380.5 930,-345.5 657,-345.5"/>
<polygon fill="none" stroke="#000000" points="657,-345.5 657,-380.5 930,-380.5 930,-345.5 657,-345.5"/>
<text text-anchor="start" x="665.7026" y="-358.3" font-family="Arial Bold" font-size="18.00" fill="#000000">public.operators</text>
<text text-anchor="start" x="793.7294" y="-358.3" font-family="Arial" font-size="14.00" fill="#000000">    </text>
<text text-anchor="start" x="827.9342" y="-358.3" font-family="Arial" font-size="14.00" fill="#666666">[BASE TABLE]</text>
<polygon fill="none" stroke="#000000" points="657,-315.5 657,-345.5 930,-345.5 930,-315.5 657,-315.5"/>
<text text-anchor="start" x="664" y="-326.9" font-family="Arial" font-size="14.00" fill="#000000">operator_id </text>
<text text-anchor="start" x="738.6872" y="-326.9" font-family="Arial" font-size="14.00" fill="#666666">[varchar(256)]</text>
<polygon fill="none" stroke="#000000" points="657,-285.5 657,-315.5 930,-315.5 930,-285.5 657,-285.5"/>
<text text-anchor="start" x="664" y="-296.9" font-family="Arial" font-size="14.00" fill="#000000">operator_name </text>
<text text-anchor="start" x="762.8064" y="-296.9" font-family="Arial" font-size="14.00" fill="#666666">[varchar(256)]</text>
<polygon fill="none" stroke="#000000" points="657,-255.5 657,-285.5 930,-285.5 930,-255.5 657,-255.5"/>
<text text-anchor="start" x="664" y="-266.9" font-family="Arial" font-size="14.00" fill="#000000">deleted_at </text>
<text text-anchor="start" x="733.2566" y="-266.9" font-family="Arial" font-size="14.00" fill="#666666">[timestamp without time zone]</text>
<polygon fill="none" stroke="#000000" points="657,-225.5 657,-255.5 930,-255.5 930,-225.5 657,-225.5"/>
<text text-anchor="start" x="664" y="-236.9" font-family="Arial" font-size="14.00" fill="#000000">created_at </text>
<text text-anchor="start" x="734.028" y="-236.9" font-family="Arial" font-size="14.00" fill="#666666">[timestamp without time zone]</text>
<polygon fill="none" stroke="#000000" points="657,-195.5 657,-225.5 930,-225.5 930,-195.5 657,-195.5"/>
<text text-anchor="start" x="664" y="-206.9" font-family="Arial" font-size="14.00" fill="#000000">created_user_id </text>
<text text-anchor="start" x="768.2524" y="-206.9" font-family="Arial" font-size="14.00" fill="#666666">[text]</text>
<polygon fill="none" stroke="#000000" points="657,-165.5 657,-195.5 930,-195.5 930,-165.5 657,-165.5"/>
<text text-anchor="start" x="663.9636" y="-176.9" font-family="Arial" font-size="14.00" fill="#000000">updated_at </text>
<text text-anchor="start" x="737.8962" y="-176.9" font-family="Arial" font-size="14.00" fill="#666666">[timestamp without time zone]</text>
<polygon fill="none" stroke="#000000" points="657,-135.5 657,-165.5 930,-165.5 930,-135.5 657,-135.5"/>
<text text-anchor="start" x="664" y="-146.9" font-family="Arial" font-size="14.00" fill="#000000">updated_user_id </text>
<text text-anchor="start" x="772.157" y="-146.9" font-family="Arial" font-size="14.00" fill="#666666">[text]</text>
<polygon fill="none" stroke="#000000" points="657,-105.5 657,-135.5 930,-135.5 930,-105.5 657,-105.5"/>
<text text-anchor="start" x="664" y="-116.9" font-family="Arial" font-size="14.00" fill="#000000">operator_address </text>
<text text-anchor="start" x="777.589" y="-116.9" font-family="Arial" font-size="14.00" fill="#666666">[varchar(256)]</text>
<polygon fill="none" stroke="#000000" points="657,-75.5 657,-105.5 930,-105.5 930,-75.5 657,-75.5"/>
<text text-anchor="start" x="664" y="-86.9" font-family="Arial" font-size="14.00" fill="#000000">open_operator_id </text>
<text text-anchor="start" x="777.6002" y="-86.9" font-family="Arial" font-size="14.00" fill="#666666">[varchar(20)]</text>
<polygon fill="none" stroke="#000000" points="657,-45.5 657,-75.5 930,-75.5 930,-45.5 657,-45.5"/>
<text text-anchor="start" x="664" y="-56.9" font-family="Arial" font-size="14.00" fill="#000000">global_operator_id </text>
<text text-anchor="start" x="783.8134" y="-56.9" font-family="Arial" font-size="14.00" fill="#666666">[varchar(256)]</text>
<polygon fill="none" stroke="#000000" stroke-width="3" points="655,-44.5 655,-382.5 931,-382.5 931,-44.5 655,-44.5"/>
</g>
<!-- public.plants -->
<g id="node2" class="node">
<title>public.plants</title>
<polygon fill="#efefef" stroke="transparent" points="235,-835.5 235,-870.5 538,-870.5 538,-835.5 235,-835.5"/>
<polygon fill="none" stroke="#000000" points="235,-835.5 235,-870.5 538,-870.5 538,-835.5 235,-835.5"/>
<text text-anchor="start" x="272.7039" y="-848.3" font-family="Arial Bold" font-size="18.00" fill="#000000">public.plants</text>
<text text-anchor="start" x="372.7281" y="-848.3" font-family="Arial" font-size="14.00" fill="#000000">    </text>
<text text-anchor="start" x="406.9329" y="-848.3" font-family="Arial" font-size="14.00" fill="#666666">[BASE TABLE]</text>
<polygon fill="none" stroke="#000000" points="235,-805.5 235,-835.5 538,-835.5 538,-805.5 235,-805.5"/>
<text text-anchor="start" x="242" y="-816.9" font-family="Arial" font-size="14.00" fill="#000000">plant_id    </text>
<text text-anchor="start" x="325.2216" y="-816.9" font-family="Arial" font-size="14.00" fill="#666666">[varchar(256)]</text>
<polygon fill="none" stroke="#000000" points="235,-775.5 235,-805.5 538,-805.5 538,-775.5 235,-775.5"/>
<text text-anchor="start" x="242" y="-786.9" font-family="Arial" font-size="14.00" fill="#000000">operator_id    </text>
<text text-anchor="start" x="347.0014" y="-786.9" font-family="Arial" font-size="14.00" fill="#666666">[varchar(256)]</text>
<polygon fill="none" stroke="#000000" points="235,-745.5 235,-775.5 538,-775.5 538,-745.5 235,-745.5"/>
<text text-anchor="start" x="242" y="-756.9" font-family="Arial" font-size="14.00" fill="#000000">plant_name    </text>
<text text-anchor="start" x="349.3408" y="-756.9" font-family="Arial" font-size="14.00" fill="#666666">[varchar(256)]</text>
<polygon fill="none" stroke="#000000" points="235,-715.5 235,-745.5 538,-745.5 538,-715.5 235,-715.5"/>
<text text-anchor="start" x="242" y="-726.9" font-family="Arial" font-size="14.00" fill="#000000">plant_address    </text>
<text text-anchor="start" x="364.1234" y="-726.9" font-family="Arial" font-size="14.00" fill="#666666">[varchar(256)]</text>
<polygon fill="none" stroke="#000000" points="235,-685.5 235,-715.5 538,-715.5 538,-685.5 235,-685.5"/>
<text text-anchor="start" x="242" y="-696.9" font-family="Arial" font-size="14.00" fill="#000000">deleted_at    </text>
<text text-anchor="start" x="341.5708" y="-696.9" font-family="Arial" font-size="14.00" fill="#666666">[timestamp without time zone]</text>
<polygon fill="none" stroke="#000000" points="235,-655.5 235,-685.5 538,-685.5 538,-655.5 235,-655.5"/>
<text text-anchor="start" x="242" y="-666.9" font-family="Arial" font-size="14.00" fill="#000000">created_at    </text>
<text text-anchor="start" x="342.3422" y="-666.9" font-family="Arial" font-size="14.00" fill="#666666">[timestamp without time zone]</text>
<polygon fill="none" stroke="#000000" points="235,-625.5 235,-655.5 538,-655.5 538,-625.5 235,-625.5"/>
<text text-anchor="start" x="242" y="-636.9" font-family="Arial" font-size="14.00" fill="#000000">created_user_id    </text>
<text text-anchor="start" x="376.5666" y="-636.9" font-family="Arial" font-size="14.00" fill="#666666">[text]</text>
<polygon fill="none" stroke="#000000" points="235,-595.5 235,-625.5 538,-625.5 538,-595.5 235,-595.5"/>
<text text-anchor="start" x="241.8065" y="-606.9" font-family="Arial" font-size="14.00" fill="#000000">updated_at    </text>
<text text-anchor="start" x="346.0533" y="-606.9" font-family="Arial" font-size="14.00" fill="#666666">[timestamp without time zone]</text>
<polygon fill="none" stroke="#000000" points="235,-565.5 235,-595.5 538,-595.5 538,-565.5 235,-565.5"/>
<text text-anchor="start" x="242" y="-576.9" font-family="Arial" font-size="14.00" fill="#000000">updated_user_id    </text>
<text text-anchor="start" x="380.4712" y="-576.9" font-family="Arial" font-size="14.00" fill="#666666">[text]</text>
<polygon fill="none" stroke="#000000" points="235,-535.5 235,-565.5 538,-565.5 538,-535.5 235,-535.5"/>
<text text-anchor="start" x="242" y="-546.9" font-family="Arial" font-size="14.00" fill="#000000">open_plant_id    </text>
<text text-anchor="start" x="364.1346" y="-546.9" font-family="Arial" font-size="14.00" fill="#666666">[varchar(26)]</text>
<polygon fill="none" stroke="#000000" points="235,-505.5 235,-535.5 538,-535.5 538,-505.5 235,-505.5"/>
<text text-anchor="start" x="242" y="-516.9" font-family="Arial" font-size="14.00" fill="#000000">global_plant_id    </text>
<text text-anchor="start" x="370.3478" y="-516.9" font-family="Arial" font-size="14.00" fill="#666666">[varchar(256)]</text>
</g>
<!-- public.plants&#45;&gt;public.operators -->
<g id="edge1" class="edge">
<title>public.plants:operator_id&#45;&gt;public.operators:operator_id</title>
<path fill="none" stroke="#000000" d="M547.9594,-788.7103C607.3813,-765.8049 567.34,-529.6261 589,-463 609.4644,-400.0517 590.8087,-330.5 657,-330.5"/>
<polygon fill="#000000" stroke="#000000" points="547.8424,-788.7313 537.2041,-786.0709 542.9212,-789.6156 538,-790.5 538,-790.5 538,-790.5 542.9212,-789.6156 538.7959,-794.9291 547.8424,-788.7313 547.8424,-788.7313"/>
<text text-anchor="start" x="6.762" y="-800.5" font-family="Arial" font-size="10.00" fill="#000000">FOREIGN KEY (operator_id) REFERENCES operators(operator_id) ON UPDATE CASCADE ON DELETE CASCADE</text>
</g>
<!-- public.trades -->
<g id="node3" class="node">
<title>public.trades</title>
<polygon fill="#efefef" stroke="transparent" points="642,-835.5 642,-870.5 945,-870.5 945,-835.5 642,-835.5"/>
<polygon fill="none" stroke="#000000" points="642,-835.5 642,-870.5 945,-870.5 945,-835.5 642,-835.5"/>
<text text-anchor="start" x="678.7049" y="-848.3" font-family="Arial Bold" font-size="18.00" fill="#000000">public.trades</text>
<text text-anchor="start" x="780.7271" y="-848.3" font-family="Arial" font-size="14.00" fill="#000000">    </text>
<text text-anchor="start" x="814.9319" y="-848.3" font-family="Arial" font-size="14.00" fill="#666666">[BASE TABLE]</text>
<polygon fill="none" stroke="#000000" points="642,-805.5 642,-835.5 945,-835.5 945,-805.5 642,-805.5"/>
<text text-anchor="start" x="649" y="-816.9" font-family="Arial" font-size="14.00" fill="#000000">trade_id    </text>
<text text-anchor="start" x="733.7756" y="-816.9" font-family="Arial" font-size="14.00" fill="#666666">[varchar(256)]</text>
<polygon fill="none" stroke="#000000" points="642,-775.5 642,-805.5 945,-805.5 945,-775.5 642,-775.5"/>
<text text-anchor="start" x="649" y="-786.9" font-family="Arial" font-size="14.00" fill="#000000">downstream_operator_id    </text>
<text text-anchor="start" x="838.0154" y="-786.9" font-family="Arial" font-size="14.00" fill="#666666">[varchar(256)]</text>
<polygon fill="none" stroke="#000000" points="642,-745.5 642,-775.5 945,-775.5 945,-745.5 642,-745.5"/>
<text text-anchor="start" x="649" y="-756.9" font-family="Arial" font-size="14.00" fill="#000000">upstream_operator_id    </text>
<text text-anchor="start" x="820.1262" y="-756.9" font-family="Arial" font-size="14.00" fill="#666666">[varchar(256)]</text>
<polygon fill="none" stroke="#000000" points="642,-715.5 642,-745.5 945,-745.5 945,-715.5 642,-715.5"/>
<text text-anchor="start" x="649" y="-726.9" font-family="Arial" font-size="14.00" fill="#000000">downstream_trace_id    </text>
<text text-anchor="start" x="817.007" y="-726.9" font-family="Arial" font-size="14.00" fill="#666666">[varchar(256)]</text>
<polygon fill="none" stroke="#000000" points="642,-685.5 642,-715.5 945,-715.5 945,-685.5 642,-685.5"/>
<text text-anchor="start" x="649" y="-696.9" font-family="Arial" font-size="14.00" fill="#000000">upstream_trace_id    </text>
<text text-anchor="start" x="799.1178" y="-696.9" font-family="Arial" font-size="14.00" fill="#666666">[varchar(256)]</text>
<polygon fill="none" stroke="#000000" points="642,-655.5 642,-685.5 945,-685.5 945,-655.5 642,-655.5"/>
<text text-anchor="start" x="649" y="-666.9" font-family="Arial" font-size="14.00" fill="#000000">trade_date    </text>
<text text-anchor="start" x="750.1248" y="-666.9" font-family="Arial" font-size="14.00" fill="#666666">[timestamp without time zone]</text>
<polygon fill="none" stroke="#000000" points="642,-625.5 642,-655.5 945,-655.5 945,-625.5 642,-625.5"/>
<text text-anchor="start" x="649" y="-636.9" font-family="Arial" font-size="14.00" fill="#000000">deleted_at    </text>
<text text-anchor="start" x="748.5708" y="-636.9" font-family="Arial" font-size="14.00" fill="#666666">[timestamp without time zone]</text>
<polygon fill="none" stroke="#000000" points="642,-595.5 642,-625.5 945,-625.5 945,-595.5 642,-595.5"/>
<text text-anchor="start" x="649" y="-606.9" font-family="Arial" font-size="14.00" fill="#000000">created_at    </text>
<text text-anchor="start" x="749.3422" y="-606.9" font-family="Arial" font-size="14.00" fill="#666666">[timestamp without time zone]</text>
<polygon fill="none" stroke="#000000" points="642,-565.5 642,-595.5 945,-595.5 945,-565.5 642,-565.5"/>
<text text-anchor="start" x="649" y="-576.9" font-family="Arial" font-size="14.00" fill="#000000">created_user_id    </text>
<text text-anchor="start" x="783.5666" y="-576.9" font-family="Arial" font-size="14.00" fill="#666666">[text]</text>
<polygon fill="none" stroke="#000000" points="642,-535.5 642,-565.5 945,-565.5 945,-535.5 642,-535.5"/>
<text text-anchor="start" x="648.8065" y="-546.9" font-family="Arial" font-size="14.00" fill="#000000">updated_at    </text>
<text text-anchor="start" x="753.0533" y="-546.9" font-family="Arial" font-size="14.00" fill="#666666">[timestamp without time zone]</text>
<polygon fill="none" stroke="#000000" points="642,-505.5 642,-535.5 945,-535.5 945,-505.5 642,-505.5"/>
<text text-anchor="start" x="649" y="-516.9" font-family="Arial" font-size="14.00" fill="#000000">updated_user_id    </text>
<text text-anchor="start" x="787.4712" y="-516.9" font-family="Arial" font-size="14.00" fill="#666666">[text]</text>
</g>
<!-- public.trades&#45;&gt;public.operators -->
<g id="edge2" class="edge">
<title>public.trades:downstream_operator_id&#45;&gt;public.operators:operator_id</title>
<path fill="none" stroke="#000000" d="M633.1793,-785.334C592.8779,-734.7969 609.0579,-330.5 657,-330.5"/>
<polygon fill="#000000" stroke="#000000" points="633.371,-785.4462 639.7258,-794.3831 637.6855,-787.9731 642,-790.5 642,-790.5 642,-790.5 637.6855,-787.9731 644.2742,-786.6169 633.371,-785.4462 633.371,-785.4462"/>
<text text-anchor="start" x="649.149" y="-800.5" font-family="Arial" font-size="10.00" fill="#000000">FOREIGN KEY (downstream_operator_id) REFERENCES operators(operator_id)</text>
</g>
<!-- public.trades&#45;&gt;public.operators -->
<g id="edge3" class="edge">
<title>public.trades:upstream_operator_id&#45;&gt;public.operators:operator_id</title>
<path fill="none" stroke="#000000" d="M633.2981,-755.0632C596.33,-705.2868 612.3678,-330.5 657,-330.5"/>
<polygon fill="#000000" stroke="#000000" points="633.5192,-755.2013 639.6156,-764.3164 637.7596,-757.8506 642,-760.5 642,-760.5 642,-760.5 637.7596,-757.8506 644.3844,-756.6836 633.5192,-755.2013 633.5192,-755.2013"/>
<text text-anchor="start" x="648.538" y="-770.5" font-family="Arial" font-size="10.00" fill="#000000">FOREIGN KEY (upstream_operator_id) REFERENCES operators(operator_id)</text>
</g>
<!-- public.apikey_operators -->
<g id="node4" class="node">
<title>public.apikey_operators</title>
<polygon fill="#efefef" stroke="transparent" points="1049,-775.5 1049,-810.5 1380,-810.5 1380,-775.5 1049,-775.5"/>
<polygon fill="none" stroke="#000000" points="1049,-775.5 1049,-810.5 1380,-810.5 1380,-775.5 1049,-775.5"/>
<text text-anchor="start" x="1055.6931" y="-788.3" font-family="Arial Bold" font-size="18.00" fill="#000000">public.apikey_operators</text>
<text text-anchor="start" x="1245.7389" y="-788.3" font-family="Arial" font-size="14.00" fill="#000000">    </text>
<text text-anchor="start" x="1279.9437" y="-788.3" font-family="Arial" font-size="14.00" fill="#666666">[BASE TABLE]</text>
<polygon fill="none" stroke="#000000" points="1049,-745.5 1049,-775.5 1380,-775.5 1380,-745.5 1049,-745.5"/>
<text text-anchor="start" x="1056" y="-756.9" font-family="Arial" font-size="14.00" fill="#000000">api_key    </text>
<text text-anchor="start" x="1138.4418" y="-756.9" font-family="Arial" font-size="14.00" fill="#666666">[varchar(256)]</text>
<polygon fill="none" stroke="#000000" points="1049,-715.5 1049,-745.5 1380,-745.5 1380,-715.5 1049,-715.5"/>
<text text-anchor="start" x="1056" y="-726.9" font-family="Arial" font-size="14.00" fill="#000000">operator_id    </text>
<text text-anchor="start" x="1161.0014" y="-726.9" font-family="Arial" font-size="14.00" fill="#666666">[varchar(256)]</text>
<polygon fill="none" stroke="#000000" points="1049,-685.5 1049,-715.5 1380,-715.5 1380,-685.5 1049,-685.5"/>
<text text-anchor="start" x="1056" y="-696.9" font-family="Arial" font-size="14.00" fill="#000000">deleted_at    </text>
<text text-anchor="start" x="1155.5708" y="-696.9" font-family="Arial" font-size="14.00" fill="#666666">[timestamp without time zone]</text>
<polygon fill="none" stroke="#000000" points="1049,-655.5 1049,-685.5 1380,-685.5 1380,-655.5 1049,-655.5"/>
<text text-anchor="start" x="1056" y="-666.9" font-family="Arial" font-size="14.00" fill="#000000">created_at    </text>
<text text-anchor="start" x="1156.3422" y="-666.9" font-family="Arial" font-size="14.00" fill="#666666">[timestamp without time zone]</text>
<polygon fill="none" stroke="#000000" points="1049,-625.5 1049,-655.5 1380,-655.5 1380,-625.5 1049,-625.5"/>
<text text-anchor="start" x="1056" y="-636.9" font-family="Arial" font-size="14.00" fill="#000000">created_user_id    </text>
<text text-anchor="start" x="1190.5666" y="-636.9" font-family="Arial" font-size="14.00" fill="#666666">[text]</text>
<polygon fill="none" stroke="#000000" points="1049,-595.5 1049,-625.5 1380,-625.5 1380,-595.5 1049,-595.5"/>
<text text-anchor="start" x="1056" y="-606.9" font-family="Arial" font-size="14.00" fill="#000000">updated_at    </text>
<text text-anchor="start" x="1160.2468" y="-606.9" font-family="Arial" font-size="14.00" fill="#666666">[timestamp without time zone]</text>
<polygon fill="none" stroke="#000000" points="1049,-565.5 1049,-595.5 1380,-595.5 1380,-565.5 1049,-565.5"/>
<text text-anchor="start" x="1056" y="-576.9" font-family="Arial" font-size="14.00" fill="#000000">updated_user_id    </text>
<text text-anchor="start" x="1194.4712" y="-576.9" font-family="Arial" font-size="14.00" fill="#666666">[text]</text>
</g>
<!-- public.apikey_operators&#45;&gt;public.operators -->
<g id="edge4" class="edge">
<title>public.apikey_operators:operator_id&#45;&gt;public.operators:operator_id</title>
<path fill="none" stroke="#000000" d="M1038.946,-728.2687C991.6806,-705.6053 1015.4394,-516.8194 997,-463 975.6114,-400.5729 995.9895,-330.5 930,-330.5"/>
<polygon fill="#000000" stroke="#000000" points="1039.2375,-728.3334 1048.025,-734.8931 1044.1188,-729.4167 1049,-730.5 1049,-730.5 1049,-730.5 1044.1188,-729.4167 1049.975,-726.1069 1039.2375,-728.3334 1039.2375,-728.3334"/>
<text text-anchor="start" x="1055.762" y="-740.5" font-family="Arial" font-size="10.00" fill="#000000">FOREIGN KEY (operator_id) REFERENCES operators(operator_id) ON UPDATE CASCADE ON DELETE CASCADE</text>
</g>
</g>
</svg>
