<?xml version="1.0" encoding="UTF-8" standalone="no"?>
<!DOCTYPE svg PUBLIC "-//W3C//DTD SVG 1.1//EN"
 "http://www.w3.org/Graphics/SVG/1.1/DTD/svg11.dtd">
<!-- Generated by graphviz version 2.40.1 (20161225.0304)
 -->
<!-- Title: public.api_keys Pages: 1 -->
<svg width="1118pt" height="772pt"
 viewBox="0.00 0.00 1118.00 772.00" xmlns="http://www.w3.org/2000/svg" xmlns:xlink="http://www.w3.org/1999/xlink">
<g id="graph0" class="graph" transform="scale(1 1) rotate(0) translate(4 768)">
<title>public.api_keys</title>
<polygon fill="#ffffff" stroke="transparent" points="-4,4 -4,-768 1114,-768 1114,4 -4,4"/>
<!-- public.api_keys -->
<g id="node1" class="node">
<title>public.api_keys</title>
<polygon fill="#efefef" stroke="transparent" points="411,-315.5 411,-350.5 684,-350.5 684,-315.5 411,-315.5"/>
<polygon fill="none" stroke="#000000" points="411,-315.5 411,-350.5 684,-350.5 684,-315.5 411,-315.5"/>
<text text-anchor="start" x="422.2019" y="-328.3" font-family="Arial Bold" font-size="18.00" fill="#000000">public.api_keys</text>
<text text-anchor="start" x="545.2301" y="-328.3" font-family="Arial" font-size="14.00" fill="#000000">    </text>
<text text-anchor="start" x="579.4349" y="-328.3" font-family="Arial" font-size="14.00" fill="#666666">[BASE TABLE]</text>
<polygon fill="none" stroke="#000000" points="411,-285.5 411,-315.5 684,-315.5 684,-285.5 411,-285.5"/>
<text text-anchor="start" x="418" y="-296.9" font-family="Arial" font-size="14.00" fill="#000000">id </text>
<text text-anchor="start" x="432.7798" y="-296.9" font-family="Arial" font-size="14.00" fill="#666666">[varchar(256)]</text>
<polygon fill="none" stroke="#000000" points="411,-255.5 411,-285.5 684,-285.5 684,-255.5 411,-255.5"/>
<text text-anchor="start" x="418" y="-266.9" font-family="Arial" font-size="14.00" fill="#000000">api_key </text>
<text text-anchor="start" x="470.1276" y="-266.9" font-family="Arial" font-size="14.00" fill="#666666">[varchar(256)]</text>
<polygon fill="none" stroke="#000000" points="411,-225.5 411,-255.5 684,-255.5 684,-225.5 411,-225.5"/>
<text text-anchor="start" x="418" y="-236.9" font-family="Arial" font-size="14.00" fill="#000000">application_name </text>
<text text-anchor="start" x="531.5876" y="-236.9" font-family="Arial" font-size="14.00" fill="#666666">[varchar(256)]</text>
<polygon fill="none" stroke="#000000" points="411,-195.5 411,-225.5 684,-225.5 684,-195.5 411,-195.5"/>
<text text-anchor="start" x="418" y="-206.9" font-family="Arial" font-size="14.00" fill="#000000">application_attribute </text>
<text text-anchor="start" x="547.1486" y="-206.9" font-family="Arial" font-size="14.00" fill="#666666">[varchar(256)]</text>
<polygon fill="none" stroke="#000000" points="411,-165.5 411,-195.5 684,-195.5 684,-165.5 411,-165.5"/>
<text text-anchor="start" x="418" y="-176.9" font-family="Arial" font-size="14.00" fill="#000000">deleted_at </text>
<text text-anchor="start" x="487.2566" y="-176.9" font-family="Arial" font-size="14.00" fill="#666666">[timestamp without time zone]</text>
<polygon fill="none" stroke="#000000" points="411,-135.5 411,-165.5 684,-165.5 684,-135.5 411,-135.5"/>
<text text-anchor="start" x="418" y="-146.9" font-family="Arial" font-size="14.00" fill="#000000">created_at </text>
<text text-anchor="start" x="488.028" y="-146.9" font-family="Arial" font-size="14.00" fill="#666666">[timestamp without time zone]</text>
<polygon fill="none" stroke="#000000" points="411,-105.5 411,-135.5 684,-135.5 684,-105.5 411,-105.5"/>
<text text-anchor="start" x="418" y="-116.9" font-family="Arial" font-size="14.00" fill="#000000">created_user_id </text>
<text text-anchor="start" x="522.2524" y="-116.9" font-family="Arial" font-size="14.00" fill="#666666">[text]</text>
<polygon fill="none" stroke="#000000" points="411,-75.5 411,-105.5 684,-105.5 684,-75.5 411,-75.5"/>
<text text-anchor="start" x="417.9636" y="-86.9" font-family="Arial" font-size="14.00" fill="#000000">updated_at </text>
<text text-anchor="start" x="491.8962" y="-86.9" font-family="Arial" font-size="14.00" fill="#666666">[timestamp without time zone]</text>
<polygon fill="none" stroke="#000000" points="411,-45.5 411,-75.5 684,-75.5 684,-45.5 411,-45.5"/>
<text text-anchor="start" x="418" y="-56.9" font-family="Arial" font-size="14.00" fill="#000000">updated_user_id </text>
<text text-anchor="start" x="526.157" y="-56.9" font-family="Arial" font-size="14.00" fill="#666666">[text]</text>
<polygon fill="none" stroke="#000000" stroke-width="3" points="409,-44.5 409,-352.5 685,-352.5 685,-44.5 409,-44.5"/>
</g>
<!-- public.apikey_operators -->
<g id="node2" class="node">
<title>public.apikey_operators</title>
<polygon fill="#efefef" stroke="transparent" points="172,-685.5 172,-720.5 503,-720.5 503,-685.5 172,-685.5"/>
<polygon fill="none" stroke="#000000" points="172,-685.5 172,-720.5 503,-720.5 503,-685.5 172,-685.5"/>
<text text-anchor="start" x="178.6931" y="-698.3" font-family="Arial Bold" font-size="18.00" fill="#000000">public.apikey_operators</text>
<text text-anchor="start" x="368.7389" y="-698.3" font-family="Arial" font-size="14.00" fill="#000000">    </text>
<text text-anchor="start" x="402.9437" y="-698.3" font-family="Arial" font-size="14.00" fill="#666666">[BASE TABLE]</text>
<polygon fill="none" stroke="#000000" points="172,-655.5 172,-685.5 503,-685.5 503,-655.5 172,-655.5"/>
<text text-anchor="start" x="179" y="-666.9" font-family="Arial" font-size="14.00" fill="#000000">api_key    </text>
<text text-anchor="start" x="261.4418" y="-666.9" font-family="Arial" font-size="14.00" fill="#666666">[varchar(256)]</text>
<polygon fill="none" stroke="#000000" points="172,-625.5 172,-655.5 503,-655.5 503,-625.5 172,-625.5"/>
<text text-anchor="start" x="179" y="-636.9" font-family="Arial" font-size="14.00" fill="#000000">operator_id    </text>
<text text-anchor="start" x="284.0014" y="-636.9" font-family="Arial" font-size="14.00" fill="#666666">[varchar(256)]</text>
<polygon fill="none" stroke="#000000" points="172,-595.5 172,-625.5 503,-625.5 503,-595.5 172,-595.5"/>
<text text-anchor="start" x="179" y="-606.9" font-family="Arial" font-size="14.00" fill="#000000">deleted_at    </text>
<text text-anchor="start" x="278.5708" y="-606.9" font-family="Arial" font-size="14.00" fill="#666666">[timestamp without time zone]</text>
<polygon fill="none" stroke="#000000" points="172,-565.5 172,-595.5 503,-595.5 503,-565.5 172,-565.5"/>
<text text-anchor="start" x="179" y="-576.9" font-family="Arial" font-size="14.00" fill="#000000">created_at    </text>
<text text-anchor="start" x="279.3422" y="-576.9" font-family="Arial" font-size="14.00" fill="#666666">[timestamp without time zone]</text>
<polygon fill="none" stroke="#000000" points="172,-535.5 172,-565.5 503,-565.5 503,-535.5 172,-535.5"/>
<text text-anchor="start" x="179" y="-546.9" font-family="Arial" font-size="14.00" fill="#000000">created_user_id    </text>
<text text-anchor="start" x="313.5666" y="-546.9" font-family="Arial" font-size="14.00" fill="#666666">[text]</text>
<polygon fill="none" stroke="#000000" points="172,-505.5 172,-535.5 503,-535.5 503,-505.5 172,-505.5"/>
<text text-anchor="start" x="179" y="-516.9" font-family="Arial" font-size="14.00" fill="#000000">updated_at    </text>
<text text-anchor="start" x="283.2468" y="-516.9" font-family="Arial" font-size="14.00" fill="#666666">[timestamp without time zone]</text>
<polygon fill="none" stroke="#000000" points="172,-475.5 172,-505.5 503,-505.5 503,-475.5 172,-475.5"/>
<text text-anchor="start" x="179" y="-486.9" font-family="Arial" font-size="14.00" fill="#000000">updated_user_id    </text>
<text text-anchor="start" x="317.4712" y="-486.9" font-family="Arial" font-size="14.00" fill="#666666">[text]</text>
</g>
<!-- public.apikey_operators&#45;&gt;public.api_keys -->
<g id="edge1" class="edge">
<title>public.apikey_operators:api_key&#45;&gt;public.api_keys:api_key</title>
<path fill="none" stroke="#000000" d="M512.783,-667.8916C552.5984,-644.6916 530.7189,-473.6121 503,-433 478.2475,-396.7341 435.7525,-433.2659 411,-397 379.3054,-350.563 354.7778,-270.5 411,-270.5"/>
<polygon fill="#000000" stroke="#000000" points="512.6624,-667.9236 501.8406,-666.1519 507.8312,-669.2118 503,-670.5 503,-670.5 503,-670.5 507.8312,-669.2118 504.1594,-674.8481 512.6624,-667.9236 512.6624,-667.9236"/>
<text text-anchor="start" x="7.2645" y="-680.5" font-family="Arial" font-size="10.00" fill="#000000">FOREIGN KEY (api_key) REFERENCES api_keys(api_key) ON UPDATE CASCADE ON DELETE CASCADE</text>
</g>
<!-- public.cidrs -->
<g id="node3" class="node">
<title>public.cidrs</title>
<polygon fill="#efefef" stroke="transparent" points="607,-685.5 607,-720.5 910,-720.5 910,-685.5 607,-685.5"/>
<polygon fill="none" stroke="#000000" points="607,-685.5 607,-720.5 910,-720.5 910,-685.5 607,-685.5"/>
<text text-anchor="start" x="649.7151" y="-698.3" font-family="Arial Bold" font-size="18.00" fill="#000000">public.cidrs</text>
<text text-anchor="start" x="739.7169" y="-698.3" font-family="Arial" font-size="14.00" fill="#000000">    </text>
<text text-anchor="start" x="773.9217" y="-698.3" font-family="Arial" font-size="14.00" fill="#666666">[BASE TABLE]</text>
<polygon fill="none" stroke="#000000" points="607,-655.5 607,-685.5 910,-685.5 910,-655.5 607,-655.5"/>
<text text-anchor="start" x="614" y="-666.9" font-family="Arial" font-size="14.00" fill="#000000">cidr    </text>
<text text-anchor="start" x="670.7546" y="-666.9" font-family="Arial" font-size="14.00" fill="#666666">[varchar(18)]</text>
<polygon fill="none" stroke="#000000" points="607,-625.5 607,-655.5 910,-655.5 910,-625.5 607,-625.5"/>
<text text-anchor="start" x="614" y="-636.9" font-family="Arial" font-size="14.00" fill="#000000">api_key    </text>
<text text-anchor="start" x="696.4418" y="-636.9" font-family="Arial" font-size="14.00" fill="#666666">[varchar(256)]</text>
<polygon fill="none" stroke="#000000" points="607,-595.5 607,-625.5 910,-625.5 910,-595.5 607,-595.5"/>
<text text-anchor="start" x="614" y="-606.9" font-family="Arial" font-size="14.00" fill="#000000">deleted_at    </text>
<text text-anchor="start" x="713.5708" y="-606.9" font-family="Arial" font-size="14.00" fill="#666666">[timestamp without time zone]</text>
<polygon fill="none" stroke="#000000" points="607,-565.5 607,-595.5 910,-595.5 910,-565.5 607,-565.5"/>
<text text-anchor="start" x="614" y="-576.9" font-family="Arial" font-size="14.00" fill="#000000">created_at    </text>
<text text-anchor="start" x="714.3422" y="-576.9" font-family="Arial" font-size="14.00" fill="#666666">[timestamp without time zone]</text>
<polygon fill="none" stroke="#000000" points="607,-535.5 607,-565.5 910,-565.5 910,-535.5 607,-535.5"/>
<text text-anchor="start" x="614" y="-546.9" font-family="Arial" font-size="14.00" fill="#000000">created_user_id    </text>
<text text-anchor="start" x="748.5666" y="-546.9" font-family="Arial" font-size="14.00" fill="#666666">[text]</text>
<polygon fill="none" stroke="#000000" points="607,-505.5 607,-535.5 910,-535.5 910,-505.5 607,-505.5"/>
<text text-anchor="start" x="613.8065" y="-516.9" font-family="Arial" font-size="14.00" fill="#000000">updated_at    </text>
<text text-anchor="start" x="718.0533" y="-516.9" font-family="Arial" font-size="14.00" fill="#666666">[timestamp without time zone]</text>
<polygon fill="none" stroke="#000000" points="607,-475.5 607,-505.5 910,-505.5 910,-475.5 607,-475.5"/>
<text text-anchor="start" x="614" y="-486.9" font-family="Arial" font-size="14.00" fill="#000000">updated_user_id    </text>
<text text-anchor="start" x="752.4712" y="-486.9" font-family="Arial" font-size="14.00" fill="#666666">[text]</text>
</g>
<!-- public.cidrs&#45;&gt;public.api_keys -->
<g id="edge2" class="edge">
<title>public.cidrs:api_key&#45;&gt;public.api_keys:api_key</title>
<path fill="none" stroke="#000000" d="M597.3975,-637.5551C564.2464,-614.9482 584.1781,-468.8629 607,-433 627.282,-401.1283 663.718,-428.8717 684,-397 714.1843,-349.5675 740.2222,-270.5 684,-270.5"/>
<polygon fill="#000000" stroke="#000000" points="597.4395,-637.5679 605.6806,-644.8022 602.2197,-639.034 607,-640.5 607,-640.5 607,-640.5 602.2197,-639.034 608.3194,-636.1978 597.4395,-637.5679 597.4395,-637.5679"/>
<text text-anchor="start" x="614.2645" y="-650.5" font-family="Arial" font-size="10.00" fill="#000000">FOREIGN KEY (api_key) REFERENCES api_keys(api_key) ON UPDATE CASCADE ON DELETE CASCADE</text>
</g>
</g>
</svg>
