<?xml version="1.0" encoding="UTF-8" standalone="no"?>
<!DOCTYPE svg PUBLIC "-//W3C//DTD SVG 1.1//EN"
 "http://www.w3.org/Graphics/SVG/1.1/DTD/svg11.dtd">
<!-- Generated by graphviz version 2.40.1 (20161225.0304)
 -->
<!-- Title: public.request_status Pages: 1 -->
<svg width="637pt" height="1012pt"
 viewBox="0.00 0.00 636.50 1012.00" xmlns="http://www.w3.org/2000/svg" xmlns:xlink="http://www.w3.org/1999/xlink">
<g id="graph0" class="graph" transform="scale(1 1) rotate(0) translate(4 1008)">
<title>public.request_status</title>
<polygon fill="#ffffff" stroke="transparent" points="-4,4 -4,-1008 632.5,-1008 632.5,4 -4,4"/>
<!-- public.request_status -->
<g id="node1" class="node">
<title>public.request_status</title>
<polygon fill="#efefef" stroke="transparent" points="272,-922.5 272,-957.5 583,-957.5 583,-922.5 272,-922.5"/>
<polygon fill="none" stroke="#000000" points="272,-922.5 272,-957.5 583,-957.5 583,-922.5 272,-922.5"/>
<text text-anchor="start" x="278.6903" y="-935.3" font-family="Arial Bold" font-size="18.00" fill="#000000">public.request_status</text>
<text text-anchor="start" x="448.7417" y="-935.3" font-family="Arial" font-size="14.00" fill="#000000">    </text>
<text text-anchor="start" x="482.9465" y="-935.3" font-family="Arial" font-size="14.00" fill="#666666">[BASE TABLE]</text>
<polygon fill="none" stroke="#000000" points="272,-892.5 272,-922.5 583,-922.5 583,-892.5 272,-892.5"/>
<text text-anchor="start" x="279" y="-903.9" font-family="Arial" font-size="14.00" fill="#000000">status_id </text>
<text text-anchor="start" x="338.9088" y="-903.9" font-family="Arial" font-size="14.00" fill="#666666">[varchar(256)]</text>
<polygon fill="none" stroke="#000000" points="272,-862.5 272,-892.5 583,-892.5 583,-862.5 272,-862.5"/>
<text text-anchor="start" x="279" y="-873.9" font-family="Arial" font-size="14.00" fill="#000000">trade_id </text>
<text text-anchor="start" x="333.4614" y="-873.9" font-family="Arial" font-size="14.00" fill="#666666">[varchar(256)]</text>
<polygon fill="none" stroke="#000000" points="272,-832.5 272,-862.5 583,-862.5 583,-832.5 272,-832.5"/>
<text text-anchor="start" x="279" y="-843.9" font-family="Arial" font-size="14.00" fill="#000000">request_status </text>
<text text-anchor="start" x="374.7012" y="-843.9" font-family="Arial" font-size="14.00" fill="#666666">[text]</text>
<polygon fill="none" stroke="#000000" points="272,-802.5 272,-832.5 583,-832.5 583,-802.5 272,-802.5"/>
<text text-anchor="start" x="279" y="-813.9" font-family="Arial" font-size="14.00" fill="#000000">message </text>
<text text-anchor="start" x="339.6816" y="-813.9" font-family="Arial" font-size="14.00" fill="#666666">[varchar(256)]</text>
<polygon fill="none" stroke="#000000" points="272,-772.5 272,-802.5 583,-802.5 583,-772.5 272,-772.5"/>
<text text-anchor="start" x="279" y="-783.9" font-family="Arial" font-size="14.00" fill="#000000">request_type </text>
<text text-anchor="start" x="363.8106" y="-783.9" font-family="Arial" font-size="14.00" fill="#666666">[varchar(256)]</text>
<polygon fill="none" stroke="#000000" points="272,-742.5 272,-772.5 583,-772.5 583,-742.5 272,-742.5"/>
<text text-anchor="start" x="279" y="-753.9" font-family="Arial" font-size="14.00" fill="#000000">deleted_at </text>
<text text-anchor="start" x="348.2566" y="-753.9" font-family="Arial" font-size="14.00" fill="#666666">[timestamp without time zone]</text>
<polygon fill="none" stroke="#000000" points="272,-712.5 272,-742.5 583,-742.5 583,-712.5 272,-712.5"/>
<text text-anchor="start" x="279" y="-723.9" font-family="Arial" font-size="14.00" fill="#000000">created_at </text>
<text text-anchor="start" x="349.028" y="-723.9" font-family="Arial" font-size="14.00" fill="#666666">[timestamp without time zone]</text>
<polygon fill="none" stroke="#000000" points="272,-682.5 272,-712.5 583,-712.5 583,-682.5 272,-682.5"/>
<text text-anchor="start" x="279" y="-693.9" font-family="Arial" font-size="14.00" fill="#000000">created_user_id </text>
<text text-anchor="start" x="383.2524" y="-693.9" font-family="Arial" font-size="14.00" fill="#666666">[text]</text>
<polygon fill="none" stroke="#000000" points="272,-652.5 272,-682.5 583,-682.5 583,-652.5 272,-652.5"/>
<text text-anchor="start" x="279" y="-663.9" font-family="Arial" font-size="14.00" fill="#000000">updated_at </text>
<text text-anchor="start" x="352.9326" y="-663.9" font-family="Arial" font-size="14.00" fill="#666666">[timestamp without time zone]</text>
<polygon fill="none" stroke="#000000" points="272,-622.5 272,-652.5 583,-652.5 583,-622.5 272,-622.5"/>
<text text-anchor="start" x="279" y="-633.9" font-family="Arial" font-size="14.00" fill="#000000">updated_user_id </text>
<text text-anchor="start" x="387.157" y="-633.9" font-family="Arial" font-size="14.00" fill="#666666">[text]</text>
<polygon fill="none" stroke="#000000" points="272,-592.5 272,-622.5 583,-622.5 583,-592.5 272,-592.5"/>
<text text-anchor="start" x="279" y="-603.9" font-family="Arial" font-size="14.00" fill="#000000">reply_message </text>
<text text-anchor="start" x="377.7966" y="-603.9" font-family="Arial" font-size="14.00" fill="#666666">[varchar(100)]</text>
<polygon fill="none" stroke="#000000" points="272,-562.5 272,-592.5 583,-592.5 583,-562.5 272,-562.5"/>
<text text-anchor="start" x="279" y="-573.9" font-family="Arial" font-size="14.00" fill="#000000">cfp_response_status </text>
<text text-anchor="start" x="412.049" y="-573.9" font-family="Arial" font-size="14.00" fill="#666666">[varchar(256)]</text>
<polygon fill="none" stroke="#000000" points="272,-532.5 272,-562.5 583,-562.5 583,-532.5 272,-532.5"/>
<text text-anchor="start" x="279" y="-543.9" font-family="Arial" font-size="14.00" fill="#000000">trade_tree_status </text>
<text text-anchor="start" x="391.8176" y="-543.9" font-family="Arial" font-size="14.00" fill="#666666">[varchar(256)]</text>
<polygon fill="none" stroke="#000000" stroke-width="3" points="270,-531.5 270,-959.5 584,-959.5 584,-531.5 270,-531.5"/>
</g>
<!-- public.trades -->
<g id="node2" class="node">
<title>public.trades</title>
<polygon fill="#efefef" stroke="transparent" points="276,-372.5 276,-407.5 579,-407.5 579,-372.5 276,-372.5"/>
<polygon fill="none" stroke="#000000" points="276,-372.5 276,-407.5 579,-407.5 579,-372.5 276,-372.5"/>
<text text-anchor="start" x="312.7049" y="-385.3" font-family="Arial Bold" font-size="18.00" fill="#000000">public.trades</text>
<text text-anchor="start" x="414.7271" y="-385.3" font-family="Arial" font-size="14.00" fill="#000000">    </text>
<text text-anchor="start" x="448.9319" y="-385.3" font-family="Arial" font-size="14.00" fill="#666666">[BASE TABLE]</text>
<polygon fill="none" stroke="#000000" points="276,-342.5 276,-372.5 579,-372.5 579,-342.5 276,-342.5"/>
<text text-anchor="start" x="283" y="-353.9" font-family="Arial" font-size="14.00" fill="#000000">trade_id    </text>
<text text-anchor="start" x="367.7756" y="-353.9" font-family="Arial" font-size="14.00" fill="#666666">[varchar(256)]</text>
<polygon fill="none" stroke="#000000" points="276,-312.5 276,-342.5 579,-342.5 579,-312.5 276,-312.5"/>
<text text-anchor="start" x="283" y="-323.9" font-family="Arial" font-size="14.00" fill="#000000">downstream_operator_id    </text>
<text text-anchor="start" x="472.0154" y="-323.9" font-family="Arial" font-size="14.00" fill="#666666">[varchar(256)]</text>
<polygon fill="none" stroke="#000000" points="276,-282.5 276,-312.5 579,-312.5 579,-282.5 276,-282.5"/>
<text text-anchor="start" x="283" y="-293.9" font-family="Arial" font-size="14.00" fill="#000000">upstream_operator_id    </text>
<text text-anchor="start" x="454.1262" y="-293.9" font-family="Arial" font-size="14.00" fill="#666666">[varchar(256)]</text>
<polygon fill="none" stroke="#000000" points="276,-252.5 276,-282.5 579,-282.5 579,-252.5 276,-252.5"/>
<text text-anchor="start" x="283" y="-263.9" font-family="Arial" font-size="14.00" fill="#000000">downstream_trace_id    </text>
<text text-anchor="start" x="451.007" y="-263.9" font-family="Arial" font-size="14.00" fill="#666666">[varchar(256)]</text>
<polygon fill="none" stroke="#000000" points="276,-222.5 276,-252.5 579,-252.5 579,-222.5 276,-222.5"/>
<text text-anchor="start" x="283" y="-233.9" font-family="Arial" font-size="14.00" fill="#000000">upstream_trace_id    </text>
<text text-anchor="start" x="433.1178" y="-233.9" font-family="Arial" font-size="14.00" fill="#666666">[varchar(256)]</text>
<polygon fill="none" stroke="#000000" points="276,-192.5 276,-222.5 579,-222.5 579,-192.5 276,-192.5"/>
<text text-anchor="start" x="283" y="-203.9" font-family="Arial" font-size="14.00" fill="#000000">trade_date    </text>
<text text-anchor="start" x="384.1248" y="-203.9" font-family="Arial" font-size="14.00" fill="#666666">[timestamp without time zone]</text>
<polygon fill="none" stroke="#000000" points="276,-162.5 276,-192.5 579,-192.5 579,-162.5 276,-162.5"/>
<text text-anchor="start" x="283" y="-173.9" font-family="Arial" font-size="14.00" fill="#000000">deleted_at    </text>
<text text-anchor="start" x="382.5708" y="-173.9" font-family="Arial" font-size="14.00" fill="#666666">[timestamp without time zone]</text>
<polygon fill="none" stroke="#000000" points="276,-132.5 276,-162.5 579,-162.5 579,-132.5 276,-132.5"/>
<text text-anchor="start" x="283" y="-143.9" font-family="Arial" font-size="14.00" fill="#000000">created_at    </text>
<text text-anchor="start" x="383.3422" y="-143.9" font-family="Arial" font-size="14.00" fill="#666666">[timestamp without time zone]</text>
<polygon fill="none" stroke="#000000" points="276,-102.5 276,-132.5 579,-132.5 579,-102.5 276,-102.5"/>
<text text-anchor="start" x="283" y="-113.9" font-family="Arial" font-size="14.00" fill="#000000">created_user_id    </text>
<text text-anchor="start" x="417.5666" y="-113.9" font-family="Arial" font-size="14.00" fill="#666666">[text]</text>
<polygon fill="none" stroke="#000000" points="276,-72.5 276,-102.5 579,-102.5 579,-72.5 276,-72.5"/>
<text text-anchor="start" x="282.8065" y="-83.9" font-family="Arial" font-size="14.00" fill="#000000">updated_at    </text>
<text text-anchor="start" x="387.0533" y="-83.9" font-family="Arial" font-size="14.00" fill="#666666">[timestamp without time zone]</text>
<polygon fill="none" stroke="#000000" points="276,-42.5 276,-72.5 579,-72.5 579,-42.5 276,-42.5"/>
<text text-anchor="start" x="283" y="-53.9" font-family="Arial" font-size="14.00" fill="#000000">updated_user_id    </text>
<text text-anchor="start" x="421.4712" y="-53.9" font-family="Arial" font-size="14.00" fill="#666666">[text]</text>
</g>
<!-- public.request_status&#45;&gt;public.trades -->
<g id="edge1" class="edge">
<title>public.request_status:trade_id&#45;&gt;public.trades:trade_id</title>
<path fill="none" stroke="#000000" d="M262.7751,-872.6843C214.8462,-820.262 221.4932,-357.5 276,-357.5"/>
<polygon fill="#000000" stroke="#000000" points="263.1352,-872.8722 269.9175,-881.4891 267.5676,-875.1861 272,-877.5 272,-877.5 272,-877.5 267.5676,-875.1861 274.0825,-873.5109 263.1352,-872.8722 263.1352,-872.8722"/>
<text text-anchor="start" x="6.8245" y="-887.5" font-family="Arial" font-size="10.00" fill="#000000">FOREIGN KEY (trade_id) REFERENCES trades(trade_id)</text>
</g>
</g>
</svg>
