<?xml version="1.0" encoding="UTF-8" standalone="no"?>
<!DOCTYPE svg PUBLIC "-//W3C//DTD SVG 1.1//EN"
 "http://www.w3.org/Graphics/SVG/1.1/DTD/svg11.dtd">
<!-- Generated by graphviz version 2.40.1 (20161225.0304)
 -->
<!-- Title: public.parts_structures Pages: 1 -->
<svg width="864pt" height="892pt"
 viewBox="0.00 0.00 864.00 892.00" xmlns="http://www.w3.org/2000/svg" xmlns:xlink="http://www.w3.org/1999/xlink">
<g id="graph0" class="graph" transform="scale(1 1) rotate(0) translate(4 888)">
<title>public.parts_structures</title>
<polygon fill="#ffffff" stroke="transparent" points="-4,4 -4,-888 860,-888 860,4 -4,4"/>
<!-- public.parts_structures -->
<g id="node1" class="node">
<title>public.parts_structures</title>
<polygon fill="#efefef" stroke="transparent" points="488,-802.5 488,-837.5 810,-837.5 810,-802.5 488,-802.5"/>
<polygon fill="none" stroke="#000000" points="488,-802.5 488,-837.5 810,-837.5 810,-802.5 488,-802.5"/>
<text text-anchor="start" x="494.7012" y="-815.3" font-family="Arial Bold" font-size="18.00" fill="#000000">public.parts_structures</text>
<text text-anchor="start" x="675.7308" y="-815.3" font-family="Arial" font-size="14.00" fill="#000000">    </text>
<text text-anchor="start" x="709.9356" y="-815.3" font-family="Arial" font-size="14.00" fill="#666666">[BASE TABLE]</text>
<polygon fill="none" stroke="#000000" points="488,-772.5 488,-802.5 810,-802.5 810,-772.5 488,-772.5"/>
<text text-anchor="start" x="495" y="-783.9" font-family="Arial" font-size="14.00" fill="#000000">trace_id </text>
<text text-anchor="start" x="548.6788" y="-783.9" font-family="Arial" font-size="14.00" fill="#666666">[varchar(256)]</text>
<polygon fill="none" stroke="#000000" points="488,-742.5 488,-772.5 810,-772.5 810,-742.5 488,-742.5"/>
<text text-anchor="start" x="495" y="-753.9" font-family="Arial" font-size="14.00" fill="#000000">parent_trace_id </text>
<text text-anchor="start" x="596.143" y="-753.9" font-family="Arial" font-size="14.00" fill="#666666">[varchar(256)]</text>
<polygon fill="none" stroke="#000000" points="488,-712.5 488,-742.5 810,-742.5 810,-712.5 488,-712.5"/>
<text text-anchor="start" x="495" y="-723.9" font-family="Arial" font-size="14.00" fill="#000000">deleted_at </text>
<text text-anchor="start" x="564.2566" y="-723.9" font-family="Arial" font-size="14.00" fill="#666666">[timestamp without time zone]</text>
<polygon fill="none" stroke="#000000" points="488,-682.5 488,-712.5 810,-712.5 810,-682.5 488,-682.5"/>
<text text-anchor="start" x="495" y="-693.9" font-family="Arial" font-size="14.00" fill="#000000">created_at </text>
<text text-anchor="start" x="565.028" y="-693.9" font-family="Arial" font-size="14.00" fill="#666666">[timestamp without time zone]</text>
<polygon fill="none" stroke="#000000" points="488,-652.5 488,-682.5 810,-682.5 810,-652.5 488,-652.5"/>
<text text-anchor="start" x="495" y="-663.9" font-family="Arial" font-size="14.00" fill="#000000">created_user_id </text>
<text text-anchor="start" x="599.2524" y="-663.9" font-family="Arial" font-size="14.00" fill="#666666">[text]</text>
<polygon fill="none" stroke="#000000" points="488,-622.5 488,-652.5 810,-652.5 810,-622.5 488,-622.5"/>
<text text-anchor="start" x="495" y="-633.9" font-family="Arial" font-size="14.00" fill="#000000">updated_at </text>
<text text-anchor="start" x="568.9326" y="-633.9" font-family="Arial" font-size="14.00" fill="#666666">[timestamp without time zone]</text>
<polygon fill="none" stroke="#000000" points="488,-592.5 488,-622.5 810,-622.5 810,-592.5 488,-592.5"/>
<text text-anchor="start" x="495" y="-603.9" font-family="Arial" font-size="14.00" fill="#000000">updated_user_id </text>
<text text-anchor="start" x="603.157" y="-603.9" font-family="Arial" font-size="14.00" fill="#666666">[text]</text>
<polygon fill="none" stroke="#000000" stroke-width="3" points="486.5,-591.5 486.5,-839.5 811.5,-839.5 811.5,-591.5 486.5,-591.5"/>
</g>
<!-- public.parts -->
<g id="node2" class="node">
<title>public.parts</title>
<polygon fill="#efefef" stroke="transparent" points="497,-432.5 497,-467.5 800,-467.5 800,-432.5 497,-432.5"/>
<polygon fill="none" stroke="#000000" points="497,-432.5 497,-467.5 800,-467.5 800,-432.5 497,-432.5"/>
<text text-anchor="start" x="538.708" y="-445.3" font-family="Arial Bold" font-size="18.00" fill="#000000">public.parts</text>
<text text-anchor="start" x="630.724" y="-445.3" font-family="Arial" font-size="14.00" fill="#000000">    </text>
<text text-anchor="start" x="664.9288" y="-445.3" font-family="Arial" font-size="14.00" fill="#666666">[BASE TABLE]</text>
<polygon fill="none" stroke="#000000" points="497,-402.5 497,-432.5 800,-432.5 800,-402.5 497,-402.5"/>
<text text-anchor="start" x="504" y="-413.9" font-family="Arial" font-size="14.00" fill="#000000">trace_id    </text>
<text text-anchor="start" x="587.993" y="-413.9" font-family="Arial" font-size="14.00" fill="#666666">[varchar(256)]</text>
<polygon fill="none" stroke="#000000" points="497,-372.5 497,-402.5 800,-402.5 800,-372.5 497,-372.5"/>
<text text-anchor="start" x="504" y="-383.9" font-family="Arial" font-size="14.00" fill="#000000">operator_id    </text>
<text text-anchor="start" x="609.0014" y="-383.9" font-family="Arial" font-size="14.00" fill="#666666">[varchar(256)]</text>
<polygon fill="none" stroke="#000000" points="497,-342.5 497,-372.5 800,-372.5 800,-342.5 497,-342.5"/>
<text text-anchor="start" x="504" y="-353.9" font-family="Arial" font-size="14.00" fill="#000000">plant_id    </text>
<text text-anchor="start" x="587.2216" y="-353.9" font-family="Arial" font-size="14.00" fill="#666666">[varchar(256)]</text>
<polygon fill="none" stroke="#000000" points="497,-312.5 497,-342.5 800,-342.5 800,-312.5 497,-312.5"/>
<text text-anchor="start" x="504" y="-323.9" font-family="Arial" font-size="14.00" fill="#000000">parts_name    </text>
<text text-anchor="start" x="612.1122" y="-323.9" font-family="Arial" font-size="14.00" fill="#666666">[varchar(256)]</text>
<polygon fill="none" stroke="#000000" points="497,-282.5 497,-312.5 800,-312.5 800,-282.5 497,-282.5"/>
<text text-anchor="start" x="504" y="-293.9" font-family="Arial" font-size="14.00" fill="#000000">deleted_at    </text>
<text text-anchor="start" x="603.5708" y="-293.9" font-family="Arial" font-size="14.00" fill="#666666">[timestamp without time zone]</text>
<polygon fill="none" stroke="#000000" points="497,-252.5 497,-282.5 800,-282.5 800,-252.5 497,-252.5"/>
<text text-anchor="start" x="504" y="-263.9" font-family="Arial" font-size="14.00" fill="#000000">created_at    </text>
<text text-anchor="start" x="604.3422" y="-263.9" font-family="Arial" font-size="14.00" fill="#666666">[timestamp without time zone]</text>
<polygon fill="none" stroke="#000000" points="497,-222.5 497,-252.5 800,-252.5 800,-222.5 497,-222.5"/>
<text text-anchor="start" x="504" y="-233.9" font-family="Arial" font-size="14.00" fill="#000000">created_user_id    </text>
<text text-anchor="start" x="638.5666" y="-233.9" font-family="Arial" font-size="14.00" fill="#666666">[text]</text>
<polygon fill="none" stroke="#000000" points="497,-192.5 497,-222.5 800,-222.5 800,-192.5 497,-192.5"/>
<text text-anchor="start" x="503.8065" y="-203.9" font-family="Arial" font-size="14.00" fill="#000000">updated_at    </text>
<text text-anchor="start" x="608.0533" y="-203.9" font-family="Arial" font-size="14.00" fill="#666666">[timestamp without time zone]</text>
<polygon fill="none" stroke="#000000" points="497,-162.5 497,-192.5 800,-192.5 800,-162.5 497,-162.5"/>
<text text-anchor="start" x="504" y="-173.9" font-family="Arial" font-size="14.00" fill="#000000">updated_user_id    </text>
<text text-anchor="start" x="642.4712" y="-173.9" font-family="Arial" font-size="14.00" fill="#666666">[text]</text>
<polygon fill="none" stroke="#000000" points="497,-132.5 497,-162.5 800,-162.5 800,-132.5 497,-132.5"/>
<text text-anchor="start" x="504" y="-143.9" font-family="Arial" font-size="14.00" fill="#000000">support_parts_name    </text>
<text text-anchor="start" x="666.5764" y="-143.9" font-family="Arial" font-size="14.00" fill="#666666">[varchar(256)]</text>
<polygon fill="none" stroke="#000000" points="497,-102.5 497,-132.5 800,-132.5 800,-102.5 497,-102.5"/>
<text text-anchor="start" x="504" y="-113.9" font-family="Arial" font-size="14.00" fill="#000000">terminated_flag    </text>
<text text-anchor="start" x="634.6718" y="-113.9" font-family="Arial" font-size="14.00" fill="#666666">[boolean]</text>
<polygon fill="none" stroke="#000000" points="497,-72.5 497,-102.5 800,-102.5 800,-72.5 497,-72.5"/>
<text text-anchor="start" x="504" y="-83.9" font-family="Arial" font-size="14.00" fill="#000000">amount_required    </text>
<text text-anchor="start" x="644.0098" y="-83.9" font-family="Arial" font-size="14.00" fill="#666666">[double precision]</text>
<polygon fill="none" stroke="#000000" points="497,-42.5 497,-72.5 800,-72.5 800,-42.5 497,-42.5"/>
<text text-anchor="start" x="504" y="-53.9" font-family="Arial" font-size="14.00" fill="#000000">amount_required_unit    </text>
<text text-anchor="start" x="674.3548" y="-53.9" font-family="Arial" font-size="14.00" fill="#666666">[varchar(256)]</text>
</g>
<!-- public.parts_structures&#45;&gt;public.parts -->
<g id="edge1" class="edge">
<title>public.parts_structures:trace_id&#45;&gt;public.parts:trace_id</title>
<path fill="none" stroke="#000000" d="M477.8208,-786.9773C383.5255,-776.9175 419.243,-624.1466 488,-547 580.8737,-442.7939 707.1263,-615.2061 800,-511 827.6489,-479.9774 841.5556,-417.5 800,-417.5"/>
<polygon fill="#000000" stroke="#000000" points="478.0132,-786.9871 487.7692,-791.9941 483.0066,-787.2436 488,-787.5 488,-787.5 488,-787.5 483.0066,-787.2436 488.2308,-783.0059 478.0132,-786.9871 478.0132,-786.9871"/>
<text text-anchor="start" x="6.771" y="-797.5" font-family="Arial" font-size="10.00" fill="#000000">FOREIGN KEY (trace_id) REFERENCES parts(trace_id) ON UPDATE CASCADE ON DELETE CASCADE</text>
</g>
</g>
</svg>
