<?xml version="1.0" encoding="UTF-8" standalone="no"?>
<!DOCTYPE svg PUBLIC "-//W3C//DTD SVG 1.1//EN"
 "http://www.w3.org/Graphics/SVG/1.1/DTD/svg11.dtd">
<!-- Generated by graphviz version 2.40.1 (20161225.0304)
 -->
<!-- Title: public.trades Pages: 1 -->
<svg width="1121pt" height="1559pt"
 viewBox="0.00 0.00 1120.50 1559.00" xmlns="http://www.w3.org/2000/svg" xmlns:xlink="http://www.w3.org/1999/xlink">
<g id="graph0" class="graph" transform="scale(1 1) rotate(0) translate(4 1555)">
<title>public.trades</title>
<polygon fill="#ffffff" stroke="transparent" points="-4,4 -4,-1555 1116.5,-1555 1116.5,4 -4,4"/>
<!-- public.trades -->
<g id="node1" class="node">
<title>public.trades</title>
<polygon fill="#efefef" stroke="transparent" points="375,-922.5 375,-957.5 648,-957.5 648,-922.5 375,-922.5"/>
<polygon fill="none" stroke="#000000" points="375,-922.5 375,-957.5 648,-957.5 648,-922.5 375,-922.5"/>
<text text-anchor="start" x="396.7049" y="-935.3" font-family="Arial Bold" font-size="18.00" fill="#000000">public.trades</text>
<text text-anchor="start" x="498.7271" y="-935.3" font-family="Arial" font-size="14.00" fill="#000000">    </text>
<text text-anchor="start" x="532.9319" y="-935.3" font-family="Arial" font-size="14.00" fill="#666666">[BASE TABLE]</text>
<polygon fill="none" stroke="#000000" points="375,-892.5 375,-922.5 648,-922.5 648,-892.5 375,-892.5"/>
<text text-anchor="start" x="382" y="-903.9" font-family="Arial" font-size="14.00" fill="#000000">trade_id </text>
<text text-anchor="start" x="436.4614" y="-903.9" font-family="Arial" font-size="14.00" fill="#666666">[varchar(256)]</text>
<polygon fill="none" stroke="#000000" points="375,-862.5 375,-892.5 648,-892.5 648,-862.5 375,-862.5"/>
<text text-anchor="start" x="382" y="-873.9" font-family="Arial" font-size="14.00" fill="#000000">downstream_operator_id </text>
<text text-anchor="start" x="540.7012" y="-873.9" font-family="Arial" font-size="14.00" fill="#666666">[varchar(256)]</text>
<polygon fill="none" stroke="#000000" points="375,-832.5 375,-862.5 648,-862.5 648,-832.5 375,-832.5"/>
<text text-anchor="start" x="382" y="-843.9" font-family="Arial" font-size="14.00" fill="#000000">upstream_operator_id </text>
<text text-anchor="start" x="522.812" y="-843.9" font-family="Arial" font-size="14.00" fill="#666666">[varchar(256)]</text>
<polygon fill="none" stroke="#000000" points="375,-802.5 375,-832.5 648,-832.5 648,-802.5 375,-802.5"/>
<text text-anchor="start" x="382" y="-813.9" font-family="Arial" font-size="14.00" fill="#000000">downstream_trace_id </text>
<text text-anchor="start" x="519.6928" y="-813.9" font-family="Arial" font-size="14.00" fill="#666666">[varchar(256)]</text>
<polygon fill="none" stroke="#000000" points="375,-772.5 375,-802.5 648,-802.5 648,-772.5 375,-772.5"/>
<text text-anchor="start" x="382" y="-783.9" font-family="Arial" font-size="14.00" fill="#000000">upstream_trace_id </text>
<text text-anchor="start" x="501.8036" y="-783.9" font-family="Arial" font-size="14.00" fill="#666666">[varchar(256)]</text>
<polygon fill="none" stroke="#000000" points="375,-742.5 375,-772.5 648,-772.5 648,-742.5 375,-742.5"/>
<text text-anchor="start" x="382" y="-753.9" font-family="Arial" font-size="14.00" fill="#000000">trade_date </text>
<text text-anchor="start" x="452.8106" y="-753.9" font-family="Arial" font-size="14.00" fill="#666666">[timestamp without time zone]</text>
<polygon fill="none" stroke="#000000" points="375,-712.5 375,-742.5 648,-742.5 648,-712.5 375,-712.5"/>
<text text-anchor="start" x="382" y="-723.9" font-family="Arial" font-size="14.00" fill="#000000">deleted_at </text>
<text text-anchor="start" x="451.2566" y="-723.9" font-family="Arial" font-size="14.00" fill="#666666">[timestamp without time zone]</text>
<polygon fill="none" stroke="#000000" points="375,-682.5 375,-712.5 648,-712.5 648,-682.5 375,-682.5"/>
<text text-anchor="start" x="382" y="-693.9" font-family="Arial" font-size="14.00" fill="#000000">created_at </text>
<text text-anchor="start" x="452.028" y="-693.9" font-family="Arial" font-size="14.00" fill="#666666">[timestamp without time zone]</text>
<polygon fill="none" stroke="#000000" points="375,-652.5 375,-682.5 648,-682.5 648,-652.5 375,-652.5"/>
<text text-anchor="start" x="382" y="-663.9" font-family="Arial" font-size="14.00" fill="#000000">created_user_id </text>
<text text-anchor="start" x="486.2524" y="-663.9" font-family="Arial" font-size="14.00" fill="#666666">[text]</text>
<polygon fill="none" stroke="#000000" points="375,-622.5 375,-652.5 648,-652.5 648,-622.5 375,-622.5"/>
<text text-anchor="start" x="381.9636" y="-633.9" font-family="Arial" font-size="14.00" fill="#000000">updated_at </text>
<text text-anchor="start" x="455.8962" y="-633.9" font-family="Arial" font-size="14.00" fill="#666666">[timestamp without time zone]</text>
<polygon fill="none" stroke="#000000" points="375,-592.5 375,-622.5 648,-622.5 648,-592.5 375,-592.5"/>
<text text-anchor="start" x="382" y="-603.9" font-family="Arial" font-size="14.00" fill="#000000">updated_user_id </text>
<text text-anchor="start" x="490.157" y="-603.9" font-family="Arial" font-size="14.00" fill="#666666">[text]</text>
<polygon fill="none" stroke="#000000" stroke-width="3" points="373,-591.5 373,-959.5 649,-959.5 649,-591.5 373,-591.5"/>
</g>
<!-- public.operators -->
<g id="node3" class="node">
<title>public.operators</title>
<polygon fill="#efefef" stroke="transparent" points="360,-387.5 360,-422.5 663,-422.5 663,-387.5 360,-387.5"/>
<polygon fill="none" stroke="#000000" points="360,-387.5 360,-422.5 663,-422.5 663,-387.5 360,-387.5"/>
<text text-anchor="start" x="383.7026" y="-400.3" font-family="Arial Bold" font-size="18.00" fill="#000000">public.operators</text>
<text text-anchor="start" x="511.7294" y="-400.3" font-family="Arial" font-size="14.00" fill="#000000">    </text>
<text text-anchor="start" x="545.9342" y="-400.3" font-family="Arial" font-size="14.00" fill="#666666">[BASE TABLE]</text>
<polygon fill="none" stroke="#000000" points="360,-357.5 360,-387.5 663,-387.5 663,-357.5 360,-357.5"/>
<text text-anchor="start" x="367" y="-368.9" font-family="Arial" font-size="14.00" fill="#000000">operator_id    </text>
<text text-anchor="start" x="472.0014" y="-368.9" font-family="Arial" font-size="14.00" fill="#666666">[varchar(256)]</text>
<polygon fill="none" stroke="#000000" points="360,-327.5 360,-357.5 663,-357.5 663,-327.5 360,-327.5"/>
<text text-anchor="start" x="367" y="-338.9" font-family="Arial" font-size="14.00" fill="#000000">operator_name    </text>
<text text-anchor="start" x="496.1206" y="-338.9" font-family="Arial" font-size="14.00" fill="#666666">[varchar(256)]</text>
<polygon fill="none" stroke="#000000" points="360,-297.5 360,-327.5 663,-327.5 663,-297.5 360,-297.5"/>
<text text-anchor="start" x="367" y="-308.9" font-family="Arial" font-size="14.00" fill="#000000">deleted_at    </text>
<text text-anchor="start" x="466.5708" y="-308.9" font-family="Arial" font-size="14.00" fill="#666666">[timestamp without time zone]</text>
<polygon fill="none" stroke="#000000" points="360,-267.5 360,-297.5 663,-297.5 663,-267.5 360,-267.5"/>
<text text-anchor="start" x="367" y="-278.9" font-family="Arial" font-size="14.00" fill="#000000">created_at    </text>
<text text-anchor="start" x="467.3422" y="-278.9" font-family="Arial" font-size="14.00" fill="#666666">[timestamp without time zone]</text>
<polygon fill="none" stroke="#000000" points="360,-237.5 360,-267.5 663,-267.5 663,-237.5 360,-237.5"/>
<text text-anchor="start" x="367" y="-248.9" font-family="Arial" font-size="14.00" fill="#000000">created_user_id    </text>
<text text-anchor="start" x="501.5666" y="-248.9" font-family="Arial" font-size="14.00" fill="#666666">[text]</text>
<polygon fill="none" stroke="#000000" points="360,-207.5 360,-237.5 663,-237.5 663,-207.5 360,-207.5"/>
<text text-anchor="start" x="366.8065" y="-218.9" font-family="Arial" font-size="14.00" fill="#000000">updated_at    </text>
<text text-anchor="start" x="471.0533" y="-218.9" font-family="Arial" font-size="14.00" fill="#666666">[timestamp without time zone]</text>
<polygon fill="none" stroke="#000000" points="360,-177.5 360,-207.5 663,-207.5 663,-177.5 360,-177.5"/>
<text text-anchor="start" x="367" y="-188.9" font-family="Arial" font-size="14.00" fill="#000000">updated_user_id    </text>
<text text-anchor="start" x="505.4712" y="-188.9" font-family="Arial" font-size="14.00" fill="#666666">[text]</text>
<polygon fill="none" stroke="#000000" points="360,-147.5 360,-177.5 663,-177.5 663,-147.5 360,-147.5"/>
<text text-anchor="start" x="367" y="-158.9" font-family="Arial" font-size="14.00" fill="#000000">operator_address    </text>
<text text-anchor="start" x="510.9032" y="-158.9" font-family="Arial" font-size="14.00" fill="#666666">[varchar(256)]</text>
<polygon fill="none" stroke="#000000" points="360,-117.5 360,-147.5 663,-147.5 663,-117.5 360,-117.5"/>
<text text-anchor="start" x="367" y="-128.9" font-family="Arial" font-size="14.00" fill="#000000">open_operator_id    </text>
<text text-anchor="start" x="510.9144" y="-128.9" font-family="Arial" font-size="14.00" fill="#666666">[varchar(20)]</text>
<polygon fill="none" stroke="#000000" points="360,-87.5 360,-117.5 663,-117.5 663,-87.5 360,-87.5"/>
<text text-anchor="start" x="367" y="-98.9" font-family="Arial" font-size="14.00" fill="#000000">global_operator_id    </text>
<text text-anchor="start" x="517.1276" y="-98.9" font-family="Arial" font-size="14.00" fill="#666666">[varchar(256)]</text>
</g>
<!-- public.trades&#45;&gt;public.operators -->
<g id="edge2" class="edge">
<title>public.trades:downstream_operator_id&#45;&gt;public.operators:operator_id</title>
<path fill="none" stroke="#000000" d="M365.0717,-876.1396C261.9367,-847.3867 251.1271,-372.5 360,-372.5"/>
<polygon fill="#000000" stroke="#000000" points="365.0926,-876.1423 374.389,-881.9583 370.0463,-876.8212 375,-877.5 375,-877.5 375,-877.5 370.0463,-876.8212 375.611,-873.0417 365.0926,-876.1423 365.0926,-876.1423"/>
<text text-anchor="start" x="7.149" y="-887.5" font-family="Arial" font-size="10.00" fill="#000000">FOREIGN KEY (downstream_operator_id) REFERENCES operators(operator_id)</text>
</g>
<!-- public.trades&#45;&gt;public.operators -->
<g id="edge3" class="edge">
<title>public.trades:upstream_operator_id&#45;&gt;public.operators:operator_id</title>
<path fill="none" stroke="#000000" d="M365.0731,-846.0519C268.5503,-817.3781 257.7952,-372.5 360,-372.5"/>
<polygon fill="#000000" stroke="#000000" points="365.1047,-846.0564 374.3504,-851.9529 370.0524,-846.7782 375,-847.5 375,-847.5 375,-847.5 370.0524,-846.7782 375.6496,-843.0471 365.1047,-846.0564 365.1047,-846.0564"/>
<text text-anchor="start" x="19.538" y="-857.5" font-family="Arial" font-size="10.00" fill="#000000">FOREIGN KEY (upstream_operator_id) REFERENCES operators(operator_id)</text>
</g>
<!-- public.parts -->
<g id="node4" class="node">
<title>public.parts</title>
<polygon fill="#efefef" stroke="transparent" points="767,-432.5 767,-467.5 1070,-467.5 1070,-432.5 767,-432.5"/>
<polygon fill="none" stroke="#000000" points="767,-432.5 767,-467.5 1070,-467.5 1070,-432.5 767,-432.5"/>
<text text-anchor="start" x="808.708" y="-445.3" font-family="Arial Bold" font-size="18.00" fill="#000000">public.parts</text>
<text text-anchor="start" x="900.724" y="-445.3" font-family="Arial" font-size="14.00" fill="#000000">    </text>
<text text-anchor="start" x="934.9288" y="-445.3" font-family="Arial" font-size="14.00" fill="#666666">[BASE TABLE]</text>
<polygon fill="none" stroke="#000000" points="767,-402.5 767,-432.5 1070,-432.5 1070,-402.5 767,-402.5"/>
<text text-anchor="start" x="774" y="-413.9" font-family="Arial" font-size="14.00" fill="#000000">trace_id    </text>
<text text-anchor="start" x="857.993" y="-413.9" font-family="Arial" font-size="14.00" fill="#666666">[varchar(256)]</text>
<polygon fill="none" stroke="#000000" points="767,-372.5 767,-402.5 1070,-402.5 1070,-372.5 767,-372.5"/>
<text text-anchor="start" x="774" y="-383.9" font-family="Arial" font-size="14.00" fill="#000000">operator_id    </text>
<text text-anchor="start" x="879.0014" y="-383.9" font-family="Arial" font-size="14.00" fill="#666666">[varchar(256)]</text>
<polygon fill="none" stroke="#000000" points="767,-342.5 767,-372.5 1070,-372.5 1070,-342.5 767,-342.5"/>
<text text-anchor="start" x="774" y="-353.9" font-family="Arial" font-size="14.00" fill="#000000">plant_id    </text>
<text text-anchor="start" x="857.2216" y="-353.9" font-family="Arial" font-size="14.00" fill="#666666">[varchar(256)]</text>
<polygon fill="none" stroke="#000000" points="767,-312.5 767,-342.5 1070,-342.5 1070,-312.5 767,-312.5"/>
<text text-anchor="start" x="774" y="-323.9" font-family="Arial" font-size="14.00" fill="#000000">parts_name    </text>
<text text-anchor="start" x="882.1122" y="-323.9" font-family="Arial" font-size="14.00" fill="#666666">[varchar(256)]</text>
<polygon fill="none" stroke="#000000" points="767,-282.5 767,-312.5 1070,-312.5 1070,-282.5 767,-282.5"/>
<text text-anchor="start" x="774" y="-293.9" font-family="Arial" font-size="14.00" fill="#000000">deleted_at    </text>
<text text-anchor="start" x="873.5708" y="-293.9" font-family="Arial" font-size="14.00" fill="#666666">[timestamp without time zone]</text>
<polygon fill="none" stroke="#000000" points="767,-252.5 767,-282.5 1070,-282.5 1070,-252.5 767,-252.5"/>
<text text-anchor="start" x="774" y="-263.9" font-family="Arial" font-size="14.00" fill="#000000">created_at    </text>
<text text-anchor="start" x="874.3422" y="-263.9" font-family="Arial" font-size="14.00" fill="#666666">[timestamp without time zone]</text>
<polygon fill="none" stroke="#000000" points="767,-222.5 767,-252.5 1070,-252.5 1070,-222.5 767,-222.5"/>
<text text-anchor="start" x="774" y="-233.9" font-family="Arial" font-size="14.00" fill="#000000">created_user_id    </text>
<text text-anchor="start" x="908.5666" y="-233.9" font-family="Arial" font-size="14.00" fill="#666666">[text]</text>
<polygon fill="none" stroke="#000000" points="767,-192.5 767,-222.5 1070,-222.5 1070,-192.5 767,-192.5"/>
<text text-anchor="start" x="773.8065" y="-203.9" font-family="Arial" font-size="14.00" fill="#000000">updated_at    </text>
<text text-anchor="start" x="878.0533" y="-203.9" font-family="Arial" font-size="14.00" fill="#666666">[timestamp without time zone]</text>
<polygon fill="none" stroke="#000000" points="767,-162.5 767,-192.5 1070,-192.5 1070,-162.5 767,-162.5"/>
<text text-anchor="start" x="774" y="-173.9" font-family="Arial" font-size="14.00" fill="#000000">updated_user_id    </text>
<text text-anchor="start" x="912.4712" y="-173.9" font-family="Arial" font-size="14.00" fill="#666666">[text]</text>
<polygon fill="none" stroke="#000000" points="767,-132.5 767,-162.5 1070,-162.5 1070,-132.5 767,-132.5"/>
<text text-anchor="start" x="774" y="-143.9" font-family="Arial" font-size="14.00" fill="#000000">support_parts_name    </text>
<text text-anchor="start" x="936.5764" y="-143.9" font-family="Arial" font-size="14.00" fill="#666666">[varchar(256)]</text>
<polygon fill="none" stroke="#000000" points="767,-102.5 767,-132.5 1070,-132.5 1070,-102.5 767,-102.5"/>
<text text-anchor="start" x="774" y="-113.9" font-family="Arial" font-size="14.00" fill="#000000">terminated_flag    </text>
<text text-anchor="start" x="904.6718" y="-113.9" font-family="Arial" font-size="14.00" fill="#666666">[boolean]</text>
<polygon fill="none" stroke="#000000" points="767,-72.5 767,-102.5 1070,-102.5 1070,-72.5 767,-72.5"/>
<text text-anchor="start" x="774" y="-83.9" font-family="Arial" font-size="14.00" fill="#000000">amount_required    </text>
<text text-anchor="start" x="914.0098" y="-83.9" font-family="Arial" font-size="14.00" fill="#666666">[double precision]</text>
<polygon fill="none" stroke="#000000" points="767,-42.5 767,-72.5 1070,-72.5 1070,-42.5 767,-42.5"/>
<text text-anchor="start" x="774" y="-53.9" font-family="Arial" font-size="14.00" fill="#000000">amount_required_unit    </text>
<text text-anchor="start" x="944.3548" y="-53.9" font-family="Arial" font-size="14.00" fill="#666666">[varchar(256)]</text>
</g>
<!-- public.trades&#45;&gt;public.parts -->
<g id="edge4" class="edge">
<title>public.trades:downstream_trace_id&#45;&gt;public.parts:trace_id</title>
<path fill="none" stroke="#000000" d="M658.158,-815.7166C735.7884,-786.8604 677.8835,-417.5 767,-417.5"/>
<polygon fill="#000000" stroke="#000000" points="657.8494,-815.7707 647.2218,-813.0678 652.9247,-816.6354 648,-817.5 648,-817.5 648,-817.5 652.9247,-816.6354 648.7782,-821.9322 657.8494,-815.7707 657.8494,-815.7707"/>
<text text-anchor="start" x="655.158" y="-827.5" font-family="Arial" font-size="10.00" fill="#000000">FOREIGN KEY (downstream_trace_id) REFERENCES parts(trace_id)</text>
</g>
<!-- public.request_status -->
<g id="node2" class="node">
<title>public.request_status</title>
<polygon fill="#efefef" stroke="transparent" points="356,-1472.5 356,-1507.5 667,-1507.5 667,-1472.5 356,-1472.5"/>
<polygon fill="none" stroke="#000000" points="356,-1472.5 356,-1507.5 667,-1507.5 667,-1472.5 356,-1472.5"/>
<text text-anchor="start" x="362.6903" y="-1485.3" font-family="Arial Bold" font-size="18.00" fill="#000000">public.request_status</text>
<text text-anchor="start" x="532.7417" y="-1485.3" font-family="Arial" font-size="14.00" fill="#000000">    </text>
<text text-anchor="start" x="566.9465" y="-1485.3" font-family="Arial" font-size="14.00" fill="#666666">[BASE TABLE]</text>
<polygon fill="none" stroke="#000000" points="356,-1442.5 356,-1472.5 667,-1472.5 667,-1442.5 356,-1442.5"/>
<text text-anchor="start" x="363" y="-1453.9" font-family="Arial" font-size="14.00" fill="#000000">status_id    </text>
<text text-anchor="start" x="453.223" y="-1453.9" font-family="Arial" font-size="14.00" fill="#666666">[varchar(256)]</text>
<polygon fill="none" stroke="#000000" points="356,-1412.5 356,-1442.5 667,-1442.5 667,-1412.5 356,-1412.5"/>
<text text-anchor="start" x="363" y="-1423.9" font-family="Arial" font-size="14.00" fill="#000000">trade_id    </text>
<text text-anchor="start" x="447.7756" y="-1423.9" font-family="Arial" font-size="14.00" fill="#666666">[varchar(256)]</text>
<polygon fill="none" stroke="#000000" points="356,-1382.5 356,-1412.5 667,-1412.5 667,-1382.5 356,-1382.5"/>
<text text-anchor="start" x="363" y="-1393.9" font-family="Arial" font-size="14.00" fill="#000000">request_status    </text>
<text text-anchor="start" x="489.0154" y="-1393.9" font-family="Arial" font-size="14.00" fill="#666666">[text]</text>
<polygon fill="none" stroke="#000000" points="356,-1352.5 356,-1382.5 667,-1382.5 667,-1352.5 356,-1352.5"/>
<text text-anchor="start" x="363" y="-1363.9" font-family="Arial" font-size="14.00" fill="#000000">message    </text>
<text text-anchor="start" x="453.9958" y="-1363.9" font-family="Arial" font-size="14.00" fill="#666666">[varchar(256)]</text>
<polygon fill="none" stroke="#000000" points="356,-1322.5 356,-1352.5 667,-1352.5 667,-1322.5 356,-1322.5"/>
<text text-anchor="start" x="363" y="-1333.9" font-family="Arial" font-size="14.00" fill="#000000">request_type    </text>
<text text-anchor="start" x="478.1248" y="-1333.9" font-family="Arial" font-size="14.00" fill="#666666">[varchar(256)]</text>
<polygon fill="none" stroke="#000000" points="356,-1292.5 356,-1322.5 667,-1322.5 667,-1292.5 356,-1292.5"/>
<text text-anchor="start" x="363" y="-1303.9" font-family="Arial" font-size="14.00" fill="#000000">deleted_at    </text>
<text text-anchor="start" x="462.5708" y="-1303.9" font-family="Arial" font-size="14.00" fill="#666666">[timestamp without time zone]</text>
<polygon fill="none" stroke="#000000" points="356,-1262.5 356,-1292.5 667,-1292.5 667,-1262.5 356,-1262.5"/>
<text text-anchor="start" x="363" y="-1273.9" font-family="Arial" font-size="14.00" fill="#000000">created_at    </text>
<text text-anchor="start" x="463.3422" y="-1273.9" font-family="Arial" font-size="14.00" fill="#666666">[timestamp without time zone]</text>
<polygon fill="none" stroke="#000000" points="356,-1232.5 356,-1262.5 667,-1262.5 667,-1232.5 356,-1232.5"/>
<text text-anchor="start" x="363" y="-1243.9" font-family="Arial" font-size="14.00" fill="#000000">created_user_id    </text>
<text text-anchor="start" x="497.5666" y="-1243.9" font-family="Arial" font-size="14.00" fill="#666666">[text]</text>
<polygon fill="none" stroke="#000000" points="356,-1202.5 356,-1232.5 667,-1232.5 667,-1202.5 356,-1202.5"/>
<text text-anchor="start" x="363" y="-1213.9" font-family="Arial" font-size="14.00" fill="#000000">updated_at    </text>
<text text-anchor="start" x="467.2468" y="-1213.9" font-family="Arial" font-size="14.00" fill="#666666">[timestamp without time zone]</text>
<polygon fill="none" stroke="#000000" points="356,-1172.5 356,-1202.5 667,-1202.5 667,-1172.5 356,-1172.5"/>
<text text-anchor="start" x="363" y="-1183.9" font-family="Arial" font-size="14.00" fill="#000000">updated_user_id    </text>
<text text-anchor="start" x="501.4712" y="-1183.9" font-family="Arial" font-size="14.00" fill="#666666">[text]</text>
<polygon fill="none" stroke="#000000" points="356,-1142.5 356,-1172.5 667,-1172.5 667,-1142.5 356,-1142.5"/>
<text text-anchor="start" x="363" y="-1153.9" font-family="Arial" font-size="14.00" fill="#000000">reply_message    </text>
<text text-anchor="start" x="492.1108" y="-1153.9" font-family="Arial" font-size="14.00" fill="#666666">[varchar(100)]</text>
<polygon fill="none" stroke="#000000" points="356,-1112.5 356,-1142.5 667,-1142.5 667,-1112.5 356,-1112.5"/>
<text text-anchor="start" x="363" y="-1123.9" font-family="Arial" font-size="14.00" fill="#000000">cfp_response_status    </text>
<text text-anchor="start" x="526.3632" y="-1123.9" font-family="Arial" font-size="14.00" fill="#666666">[varchar(256)]</text>
<polygon fill="none" stroke="#000000" points="356,-1082.5 356,-1112.5 667,-1112.5 667,-1082.5 356,-1082.5"/>
<text text-anchor="start" x="363" y="-1093.9" font-family="Arial" font-size="14.00" fill="#000000">trade_tree_status    </text>
<text text-anchor="start" x="506.1318" y="-1093.9" font-family="Arial" font-size="14.00" fill="#666666">[varchar(256)]</text>
</g>
<!-- public.request_status&#45;&gt;public.trades -->
<g id="edge1" class="edge">
<title>public.request_status:trade_id&#45;&gt;public.trades:trade_id</title>
<path fill="none" stroke="#000000" d="M345.8673,-1426.0991C241.6063,-1396.4922 262.8679,-907.5 375,-907.5"/>
<polygon fill="#000000" stroke="#000000" points="346.0942,-1426.1304 355.3837,-1431.9576 351.0471,-1426.8152 356,-1427.5 356,-1427.5 356,-1427.5 351.0471,-1426.8152 356.6163,-1423.0424 346.0942,-1426.1304 346.0942,-1426.1304"/>
<text text-anchor="start" x="90.8245" y="-1437.5" font-family="Arial" font-size="10.00" fill="#000000">FOREIGN KEY (trade_id) REFERENCES trades(trade_id)</text>
</g>
</g>
</svg>
