<?xml version="1.0" encoding="UTF-8" standalone="no"?>
<!DOCTYPE svg PUBLIC "-//W3C//DTD SVG 1.1//EN"
 "http://www.w3.org/Graphics/SVG/1.1/DTD/svg11.dtd">
<!-- Generated by graphviz version 2.40.1 (20161225.0304)
 -->
<!-- Title: public.apikey_operators Pages: 1 -->
<svg width="1380pt" height="802pt"
 viewBox="0.00 0.00 1380.00 802.00" xmlns="http://www.w3.org/2000/svg" xmlns:xlink="http://www.w3.org/1999/xlink">
<g id="graph0" class="graph" transform="scale(1 1) rotate(0) translate(4 798)">
<title>public.apikey_operators</title>
<polygon fill="#ffffff" stroke="transparent" points="-4,4 -4,-798 1376,-798 1376,4 -4,4"/>
<!-- public.apikey_operators -->
<g id="node1" class="node">
<title>public.apikey_operators</title>
<polygon fill="#efefef" stroke="transparent" points="503,-712.5 503,-747.5 834,-747.5 834,-712.5 503,-712.5"/>
<polygon fill="none" stroke="#000000" points="503,-712.5 503,-747.5 834,-747.5 834,-712.5 503,-712.5"/>
<text text-anchor="start" x="509.6931" y="-725.3" font-family="Arial Bold" font-size="18.00" fill="#000000">public.apikey_operators</text>
<text text-anchor="start" x="699.7389" y="-725.3" font-family="Arial" font-size="14.00" fill="#000000">    </text>
<text text-anchor="start" x="733.9437" y="-725.3" font-family="Arial" font-size="14.00" fill="#666666">[BASE TABLE]</text>
<polygon fill="none" stroke="#000000" points="503,-682.5 503,-712.5 834,-712.5 834,-682.5 503,-682.5"/>
<text text-anchor="start" x="510" y="-693.9" font-family="Arial" font-size="14.00" fill="#000000">api_key </text>
<text text-anchor="start" x="562.1276" y="-693.9" font-family="Arial" font-size="14.00" fill="#666666">[varchar(256)]</text>
<polygon fill="none" stroke="#000000" points="503,-652.5 503,-682.5 834,-682.5 834,-652.5 503,-652.5"/>
<text text-anchor="start" x="510" y="-663.9" font-family="Arial" font-size="14.00" fill="#000000">operator_id </text>
<text text-anchor="start" x="584.6872" y="-663.9" font-family="Arial" font-size="14.00" fill="#666666">[varchar(256)]</text>
<polygon fill="none" stroke="#000000" points="503,-622.5 503,-652.5 834,-652.5 834,-622.5 503,-622.5"/>
<text text-anchor="start" x="510" y="-633.9" font-family="Arial" font-size="14.00" fill="#000000">deleted_at </text>
<text text-anchor="start" x="579.2566" y="-633.9" font-family="Arial" font-size="14.00" fill="#666666">[timestamp without time zone]</text>
<polygon fill="none" stroke="#000000" points="503,-592.5 503,-622.5 834,-622.5 834,-592.5 503,-592.5"/>
<text text-anchor="start" x="510" y="-603.9" font-family="Arial" font-size="14.00" fill="#000000">created_at </text>
<text text-anchor="start" x="580.028" y="-603.9" font-family="Arial" font-size="14.00" fill="#666666">[timestamp without time zone]</text>
<polygon fill="none" stroke="#000000" points="503,-562.5 503,-592.5 834,-592.5 834,-562.5 503,-562.5"/>
<text text-anchor="start" x="510" y="-573.9" font-family="Arial" font-size="14.00" fill="#000000">created_user_id </text>
<text text-anchor="start" x="614.2524" y="-573.9" font-family="Arial" font-size="14.00" fill="#666666">[text]</text>
<polygon fill="none" stroke="#000000" points="503,-532.5 503,-562.5 834,-562.5 834,-532.5 503,-532.5"/>
<text text-anchor="start" x="510" y="-543.9" font-family="Arial" font-size="14.00" fill="#000000">updated_at </text>
<text text-anchor="start" x="583.9326" y="-543.9" font-family="Arial" font-size="14.00" fill="#666666">[timestamp without time zone]</text>
<polygon fill="none" stroke="#000000" points="503,-502.5 503,-532.5 834,-532.5 834,-502.5 503,-502.5"/>
<text text-anchor="start" x="510" y="-513.9" font-family="Arial" font-size="14.00" fill="#000000">updated_user_id </text>
<text text-anchor="start" x="618.157" y="-513.9" font-family="Arial" font-size="14.00" fill="#666666">[text]</text>
<polygon fill="none" stroke="#000000" stroke-width="3" points="501,-501.5 501,-749.5 835,-749.5 835,-501.5 501,-501.5"/>
</g>
<!-- public.api_keys -->
<g id="node2" class="node">
<title>public.api_keys</title>
<polygon fill="#efefef" stroke="transparent" points="314,-327.5 314,-362.5 617,-362.5 617,-327.5 314,-327.5"/>
<polygon fill="none" stroke="#000000" points="314,-327.5 314,-362.5 617,-362.5 617,-327.5 314,-327.5"/>
<text text-anchor="start" x="340.2019" y="-340.3" font-family="Arial Bold" font-size="18.00" fill="#000000">public.api_keys</text>
<text text-anchor="start" x="463.2301" y="-340.3" font-family="Arial" font-size="14.00" fill="#000000">    </text>
<text text-anchor="start" x="497.4349" y="-340.3" font-family="Arial" font-size="14.00" fill="#666666">[BASE TABLE]</text>
<polygon fill="none" stroke="#000000" points="314,-297.5 314,-327.5 617,-327.5 617,-297.5 314,-297.5"/>
<text text-anchor="start" x="321" y="-308.9" font-family="Arial" font-size="14.00" fill="#000000">id    </text>
<text text-anchor="start" x="366.094" y="-308.9" font-family="Arial" font-size="14.00" fill="#666666">[varchar(256)]</text>
<polygon fill="none" stroke="#000000" points="314,-267.5 314,-297.5 617,-297.5 617,-267.5 314,-267.5"/>
<text text-anchor="start" x="321" y="-278.9" font-family="Arial" font-size="14.00" fill="#000000">api_key    </text>
<text text-anchor="start" x="403.4418" y="-278.9" font-family="Arial" font-size="14.00" fill="#666666">[varchar(256)]</text>
<polygon fill="none" stroke="#000000" points="314,-237.5 314,-267.5 617,-267.5 617,-237.5 314,-237.5"/>
<text text-anchor="start" x="321" y="-248.9" font-family="Arial" font-size="14.00" fill="#000000">application_name    </text>
<text text-anchor="start" x="464.9018" y="-248.9" font-family="Arial" font-size="14.00" fill="#666666">[varchar(256)]</text>
<polygon fill="none" stroke="#000000" points="314,-207.5 314,-237.5 617,-237.5 617,-207.5 314,-207.5"/>
<text text-anchor="start" x="321" y="-218.9" font-family="Arial" font-size="14.00" fill="#000000">application_attribute    </text>
<text text-anchor="start" x="480.4628" y="-218.9" font-family="Arial" font-size="14.00" fill="#666666">[varchar(256)]</text>
<polygon fill="none" stroke="#000000" points="314,-177.5 314,-207.5 617,-207.5 617,-177.5 314,-177.5"/>
<text text-anchor="start" x="321" y="-188.9" font-family="Arial" font-size="14.00" fill="#000000">deleted_at    </text>
<text text-anchor="start" x="420.5708" y="-188.9" font-family="Arial" font-size="14.00" fill="#666666">[timestamp without time zone]</text>
<polygon fill="none" stroke="#000000" points="314,-147.5 314,-177.5 617,-177.5 617,-147.5 314,-147.5"/>
<text text-anchor="start" x="321" y="-158.9" font-family="Arial" font-size="14.00" fill="#000000">created_at    </text>
<text text-anchor="start" x="421.3422" y="-158.9" font-family="Arial" font-size="14.00" fill="#666666">[timestamp without time zone]</text>
<polygon fill="none" stroke="#000000" points="314,-117.5 314,-147.5 617,-147.5 617,-117.5 314,-117.5"/>
<text text-anchor="start" x="321" y="-128.9" font-family="Arial" font-size="14.00" fill="#000000">created_user_id    </text>
<text text-anchor="start" x="455.5666" y="-128.9" font-family="Arial" font-size="14.00" fill="#666666">[text]</text>
<polygon fill="none" stroke="#000000" points="314,-87.5 314,-117.5 617,-117.5 617,-87.5 314,-87.5"/>
<text text-anchor="start" x="320.8065" y="-98.9" font-family="Arial" font-size="14.00" fill="#000000">updated_at    </text>
<text text-anchor="start" x="425.0533" y="-98.9" font-family="Arial" font-size="14.00" fill="#666666">[timestamp without time zone]</text>
<polygon fill="none" stroke="#000000" points="314,-57.5 314,-87.5 617,-87.5 617,-57.5 314,-57.5"/>
<text text-anchor="start" x="321" y="-68.9" font-family="Arial" font-size="14.00" fill="#000000">updated_user_id    </text>
<text text-anchor="start" x="459.4712" y="-68.9" font-family="Arial" font-size="14.00" fill="#666666">[text]</text>
</g>
<!-- public.apikey_operators&#45;&gt;public.api_keys -->
<g id="edge1" class="edge">
<title>public.apikey_operators:api_key&#45;&gt;public.api_keys:api_key</title>
<path fill="none" stroke="#000000" d="M492.8623,-697.009C399.359,-687.5531 446.7944,-543.7183 503,-457 533.1891,-410.422 586.8109,-452.578 617,-406 646.8535,-359.9397 671.8889,-282.5 617,-282.5"/>
<polygon fill="#000000" stroke="#000000" points="493.0117,-697.0161 502.7823,-701.9947 498.0059,-697.2581 503,-697.5 503,-697.5 503,-697.5 498.0059,-697.2581 503.2177,-693.0053 493.0117,-697.0161 493.0117,-697.0161"/>
<text text-anchor="start" x="7.2645" y="-707.5" font-family="Arial" font-size="10.00" fill="#000000">FOREIGN KEY (api_key) REFERENCES api_keys(api_key) ON UPDATE CASCADE ON DELETE CASCADE</text>
</g>
<!-- public.operators -->
<g id="node3" class="node">
<title>public.operators</title>
<polygon fill="#efefef" stroke="transparent" points="721,-342.5 721,-377.5 1024,-377.5 1024,-342.5 721,-342.5"/>
<polygon fill="none" stroke="#000000" points="721,-342.5 721,-377.5 1024,-377.5 1024,-342.5 721,-342.5"/>
<text text-anchor="start" x="744.7026" y="-355.3" font-family="Arial Bold" font-size="18.00" fill="#000000">public.operators</text>
<text text-anchor="start" x="872.7294" y="-355.3" font-family="Arial" font-size="14.00" fill="#000000">    </text>
<text text-anchor="start" x="906.9342" y="-355.3" font-family="Arial" font-size="14.00" fill="#666666">[BASE TABLE]</text>
<polygon fill="none" stroke="#000000" points="721,-312.5 721,-342.5 1024,-342.5 1024,-312.5 721,-312.5"/>
<text text-anchor="start" x="728" y="-323.9" font-family="Arial" font-size="14.00" fill="#000000">operator_id    </text>
<text text-anchor="start" x="833.0014" y="-323.9" font-family="Arial" font-size="14.00" fill="#666666">[varchar(256)]</text>
<polygon fill="none" stroke="#000000" points="721,-282.5 721,-312.5 1024,-312.5 1024,-282.5 721,-282.5"/>
<text text-anchor="start" x="728" y="-293.9" font-family="Arial" font-size="14.00" fill="#000000">operator_name    </text>
<text text-anchor="start" x="857.1206" y="-293.9" font-family="Arial" font-size="14.00" fill="#666666">[varchar(256)]</text>
<polygon fill="none" stroke="#000000" points="721,-252.5 721,-282.5 1024,-282.5 1024,-252.5 721,-252.5"/>
<text text-anchor="start" x="728" y="-263.9" font-family="Arial" font-size="14.00" fill="#000000">deleted_at    </text>
<text text-anchor="start" x="827.5708" y="-263.9" font-family="Arial" font-size="14.00" fill="#666666">[timestamp without time zone]</text>
<polygon fill="none" stroke="#000000" points="721,-222.5 721,-252.5 1024,-252.5 1024,-222.5 721,-222.5"/>
<text text-anchor="start" x="728" y="-233.9" font-family="Arial" font-size="14.00" fill="#000000">created_at    </text>
<text text-anchor="start" x="828.3422" y="-233.9" font-family="Arial" font-size="14.00" fill="#666666">[timestamp without time zone]</text>
<polygon fill="none" stroke="#000000" points="721,-192.5 721,-222.5 1024,-222.5 1024,-192.5 721,-192.5"/>
<text text-anchor="start" x="728" y="-203.9" font-family="Arial" font-size="14.00" fill="#000000">created_user_id    </text>
<text text-anchor="start" x="862.5666" y="-203.9" font-family="Arial" font-size="14.00" fill="#666666">[text]</text>
<polygon fill="none" stroke="#000000" points="721,-162.5 721,-192.5 1024,-192.5 1024,-162.5 721,-162.5"/>
<text text-anchor="start" x="727.8065" y="-173.9" font-family="Arial" font-size="14.00" fill="#000000">updated_at    </text>
<text text-anchor="start" x="832.0533" y="-173.9" font-family="Arial" font-size="14.00" fill="#666666">[timestamp without time zone]</text>
<polygon fill="none" stroke="#000000" points="721,-132.5 721,-162.5 1024,-162.5 1024,-132.5 721,-132.5"/>
<text text-anchor="start" x="728" y="-143.9" font-family="Arial" font-size="14.00" fill="#000000">updated_user_id    </text>
<text text-anchor="start" x="866.4712" y="-143.9" font-family="Arial" font-size="14.00" fill="#666666">[text]</text>
<polygon fill="none" stroke="#000000" points="721,-102.5 721,-132.5 1024,-132.5 1024,-102.5 721,-102.5"/>
<text text-anchor="start" x="728" y="-113.9" font-family="Arial" font-size="14.00" fill="#000000">operator_address    </text>
<text text-anchor="start" x="871.9032" y="-113.9" font-family="Arial" font-size="14.00" fill="#666666">[varchar(256)]</text>
<polygon fill="none" stroke="#000000" points="721,-72.5 721,-102.5 1024,-102.5 1024,-72.5 721,-72.5"/>
<text text-anchor="start" x="728" y="-83.9" font-family="Arial" font-size="14.00" fill="#000000">open_operator_id    </text>
<text text-anchor="start" x="871.9144" y="-83.9" font-family="Arial" font-size="14.00" fill="#666666">[varchar(20)]</text>
<polygon fill="none" stroke="#000000" points="721,-42.5 721,-72.5 1024,-72.5 1024,-42.5 721,-42.5"/>
<text text-anchor="start" x="728" y="-53.9" font-family="Arial" font-size="14.00" fill="#000000">global_operator_id    </text>
<text text-anchor="start" x="878.1276" y="-53.9" font-family="Arial" font-size="14.00" fill="#666666">[varchar(256)]</text>
</g>
<!-- public.apikey_operators&#45;&gt;public.operators -->
<g id="edge2" class="edge">
<title>public.apikey_operators:operator_id&#45;&gt;public.operators:operator_id</title>
<path fill="none" stroke="#000000" d="M844.3666,-666.8937C924.5339,-657.0462 887.0511,-529.5795 834,-457 802.896,-414.4464 752.104,-463.5536 721,-421 696.4779,-387.4511 679.4444,-327.5 721,-327.5"/>
<polygon fill="#000000" stroke="#000000" points="843.9829,-666.9161 833.7372,-663.0077 838.9915,-667.208 834,-667.5 834,-667.5 834,-667.5 838.9915,-667.208 834.2628,-671.9923 843.9829,-666.9161 843.9829,-666.9161"/>
<text text-anchor="start" x="840.762" y="-677.5" font-family="Arial" font-size="10.00" fill="#000000">FOREIGN KEY (operator_id) REFERENCES operators(operator_id) ON UPDATE CASCADE ON DELETE CASCADE</text>
</g>
</g>
</svg>
