<?xml version="1.0" encoding="UTF-8" standalone="no"?>
<!DOCTYPE svg PUBLIC "-//W3C//DTD SVG 1.1//EN"
 "http://www.w3.org/Graphics/SVG/1.1/DTD/svg11.dtd">
<!-- Generated by graphviz version 2.40.1 (20161225.0304)
 -->
<!-- Title: public.parts Pages: 1 -->
<svg width="1496pt" height="1589pt"
 viewBox="0.00 0.00 1496.00 1589.00" xmlns="http://www.w3.org/2000/svg" xmlns:xlink="http://www.w3.org/1999/xlink">
<g id="graph0" class="graph" transform="scale(1 1) rotate(0) translate(4 1585)">
<title>public.parts</title>
<polygon fill="#ffffff" stroke="transparent" points="-4,4 -4,-1585 1492,-1585 1492,4 -4,4"/>
<!-- public.parts -->
<g id="node1" class="node">
<title>public.parts</title>
<polygon fill="#efefef" stroke="transparent" points="608,-922.5 608,-957.5 881,-957.5 881,-922.5 608,-922.5"/>
<polygon fill="none" stroke="#000000" points="608,-922.5 608,-957.5 881,-957.5 881,-922.5 608,-922.5"/>
<text text-anchor="start" x="634.708" y="-935.3" font-family="Arial Bold" font-size="18.00" fill="#000000">public.parts</text>
<text text-anchor="start" x="726.724" y="-935.3" font-family="Arial" font-size="14.00" fill="#000000">    </text>
<text text-anchor="start" x="760.9288" y="-935.3" font-family="Arial" font-size="14.00" fill="#666666">[BASE TABLE]</text>
<polygon fill="none" stroke="#000000" points="608,-892.5 608,-922.5 881,-922.5 881,-892.5 608,-892.5"/>
<text text-anchor="start" x="615" y="-903.9" font-family="Arial" font-size="14.00" fill="#000000">trace_id </text>
<text text-anchor="start" x="668.6788" y="-903.9" font-family="Arial" font-size="14.00" fill="#666666">[varchar(256)]</text>
<polygon fill="none" stroke="#000000" points="608,-862.5 608,-892.5 881,-892.5 881,-862.5 608,-862.5"/>
<text text-anchor="start" x="615" y="-873.9" font-family="Arial" font-size="14.00" fill="#000000">operator_id </text>
<text text-anchor="start" x="689.6872" y="-873.9" font-family="Arial" font-size="14.00" fill="#666666">[varchar(256)]</text>
<polygon fill="none" stroke="#000000" points="608,-832.5 608,-862.5 881,-862.5 881,-832.5 608,-832.5"/>
<text text-anchor="start" x="615" y="-843.9" font-family="Arial" font-size="14.00" fill="#000000">plant_id </text>
<text text-anchor="start" x="667.9074" y="-843.9" font-family="Arial" font-size="14.00" fill="#666666">[varchar(256)]</text>
<polygon fill="none" stroke="#000000" points="608,-802.5 608,-832.5 881,-832.5 881,-802.5 608,-802.5"/>
<text text-anchor="start" x="615" y="-813.9" font-family="Arial" font-size="14.00" fill="#000000">parts_name </text>
<text text-anchor="start" x="692.798" y="-813.9" font-family="Arial" font-size="14.00" fill="#666666">[varchar(256)]</text>
<polygon fill="none" stroke="#000000" points="608,-772.5 608,-802.5 881,-802.5 881,-772.5 608,-772.5"/>
<text text-anchor="start" x="615" y="-783.9" font-family="Arial" font-size="14.00" fill="#000000">deleted_at </text>
<text text-anchor="start" x="684.2566" y="-783.9" font-family="Arial" font-size="14.00" fill="#666666">[timestamp without time zone]</text>
<polygon fill="none" stroke="#000000" points="608,-742.5 608,-772.5 881,-772.5 881,-742.5 608,-742.5"/>
<text text-anchor="start" x="615" y="-753.9" font-family="Arial" font-size="14.00" fill="#000000">created_at </text>
<text text-anchor="start" x="685.028" y="-753.9" font-family="Arial" font-size="14.00" fill="#666666">[timestamp without time zone]</text>
<polygon fill="none" stroke="#000000" points="608,-712.5 608,-742.5 881,-742.5 881,-712.5 608,-712.5"/>
<text text-anchor="start" x="615" y="-723.9" font-family="Arial" font-size="14.00" fill="#000000">created_user_id </text>
<text text-anchor="start" x="719.2524" y="-723.9" font-family="Arial" font-size="14.00" fill="#666666">[text]</text>
<polygon fill="none" stroke="#000000" points="608,-682.5 608,-712.5 881,-712.5 881,-682.5 608,-682.5"/>
<text text-anchor="start" x="614.9636" y="-693.9" font-family="Arial" font-size="14.00" fill="#000000">updated_at </text>
<text text-anchor="start" x="688.8962" y="-693.9" font-family="Arial" font-size="14.00" fill="#666666">[timestamp without time zone]</text>
<polygon fill="none" stroke="#000000" points="608,-652.5 608,-682.5 881,-682.5 881,-652.5 608,-652.5"/>
<text text-anchor="start" x="615" y="-663.9" font-family="Arial" font-size="14.00" fill="#000000">updated_user_id </text>
<text text-anchor="start" x="723.157" y="-663.9" font-family="Arial" font-size="14.00" fill="#666666">[text]</text>
<polygon fill="none" stroke="#000000" points="608,-622.5 608,-652.5 881,-652.5 881,-622.5 608,-622.5"/>
<text text-anchor="start" x="615" y="-633.9" font-family="Arial" font-size="14.00" fill="#000000">support_parts_name </text>
<text text-anchor="start" x="747.2622" y="-633.9" font-family="Arial" font-size="14.00" fill="#666666">[varchar(256)]</text>
<polygon fill="none" stroke="#000000" points="608,-592.5 608,-622.5 881,-622.5 881,-592.5 608,-592.5"/>
<text text-anchor="start" x="615" y="-603.9" font-family="Arial" font-size="14.00" fill="#000000">terminated_flag </text>
<text text-anchor="start" x="715.3576" y="-603.9" font-family="Arial" font-size="14.00" fill="#666666">[boolean]</text>
<polygon fill="none" stroke="#000000" points="608,-562.5 608,-592.5 881,-592.5 881,-562.5 608,-562.5"/>
<text text-anchor="start" x="615" y="-573.9" font-family="Arial" font-size="14.00" fill="#000000">amount_required </text>
<text text-anchor="start" x="724.6956" y="-573.9" font-family="Arial" font-size="14.00" fill="#666666">[double precision]</text>
<polygon fill="none" stroke="#000000" points="608,-532.5 608,-562.5 881,-562.5 881,-532.5 608,-532.5"/>
<text text-anchor="start" x="615" y="-543.9" font-family="Arial" font-size="14.00" fill="#000000">amount_required_unit </text>
<text text-anchor="start" x="755.0406" y="-543.9" font-family="Arial" font-size="14.00" fill="#666666">[varchar(256)]</text>
<polygon fill="none" stroke="#000000" stroke-width="3" points="606,-531.5 606,-959.5 882,-959.5 882,-531.5 606,-531.5"/>
</g>
<!-- public.plants -->
<g id="node5" class="node">
<title>public.plants</title>
<polygon fill="#efefef" stroke="transparent" points="593,-372.5 593,-407.5 896,-407.5 896,-372.5 593,-372.5"/>
<polygon fill="none" stroke="#000000" points="593,-372.5 593,-407.5 896,-407.5 896,-372.5 593,-372.5"/>
<text text-anchor="start" x="630.7039" y="-385.3" font-family="Arial Bold" font-size="18.00" fill="#000000">public.plants</text>
<text text-anchor="start" x="730.7281" y="-385.3" font-family="Arial" font-size="14.00" fill="#000000">    </text>
<text text-anchor="start" x="764.9329" y="-385.3" font-family="Arial" font-size="14.00" fill="#666666">[BASE TABLE]</text>
<polygon fill="none" stroke="#000000" points="593,-342.5 593,-372.5 896,-372.5 896,-342.5 593,-342.5"/>
<text text-anchor="start" x="600" y="-353.9" font-family="Arial" font-size="14.00" fill="#000000">plant_id    </text>
<text text-anchor="start" x="683.2216" y="-353.9" font-family="Arial" font-size="14.00" fill="#666666">[varchar(256)]</text>
<polygon fill="none" stroke="#000000" points="593,-312.5 593,-342.5 896,-342.5 896,-312.5 593,-312.5"/>
<text text-anchor="start" x="600" y="-323.9" font-family="Arial" font-size="14.00" fill="#000000">operator_id    </text>
<text text-anchor="start" x="705.0014" y="-323.9" font-family="Arial" font-size="14.00" fill="#666666">[varchar(256)]</text>
<polygon fill="none" stroke="#000000" points="593,-282.5 593,-312.5 896,-312.5 896,-282.5 593,-282.5"/>
<text text-anchor="start" x="600" y="-293.9" font-family="Arial" font-size="14.00" fill="#000000">plant_name    </text>
<text text-anchor="start" x="707.3408" y="-293.9" font-family="Arial" font-size="14.00" fill="#666666">[varchar(256)]</text>
<polygon fill="none" stroke="#000000" points="593,-252.5 593,-282.5 896,-282.5 896,-252.5 593,-252.5"/>
<text text-anchor="start" x="600" y="-263.9" font-family="Arial" font-size="14.00" fill="#000000">plant_address    </text>
<text text-anchor="start" x="722.1234" y="-263.9" font-family="Arial" font-size="14.00" fill="#666666">[varchar(256)]</text>
<polygon fill="none" stroke="#000000" points="593,-222.5 593,-252.5 896,-252.5 896,-222.5 593,-222.5"/>
<text text-anchor="start" x="600" y="-233.9" font-family="Arial" font-size="14.00" fill="#000000">deleted_at    </text>
<text text-anchor="start" x="699.5708" y="-233.9" font-family="Arial" font-size="14.00" fill="#666666">[timestamp without time zone]</text>
<polygon fill="none" stroke="#000000" points="593,-192.5 593,-222.5 896,-222.5 896,-192.5 593,-192.5"/>
<text text-anchor="start" x="600" y="-203.9" font-family="Arial" font-size="14.00" fill="#000000">created_at    </text>
<text text-anchor="start" x="700.3422" y="-203.9" font-family="Arial" font-size="14.00" fill="#666666">[timestamp without time zone]</text>
<polygon fill="none" stroke="#000000" points="593,-162.5 593,-192.5 896,-192.5 896,-162.5 593,-162.5"/>
<text text-anchor="start" x="600" y="-173.9" font-family="Arial" font-size="14.00" fill="#000000">created_user_id    </text>
<text text-anchor="start" x="734.5666" y="-173.9" font-family="Arial" font-size="14.00" fill="#666666">[text]</text>
<polygon fill="none" stroke="#000000" points="593,-132.5 593,-162.5 896,-162.5 896,-132.5 593,-132.5"/>
<text text-anchor="start" x="599.8065" y="-143.9" font-family="Arial" font-size="14.00" fill="#000000">updated_at    </text>
<text text-anchor="start" x="704.0533" y="-143.9" font-family="Arial" font-size="14.00" fill="#666666">[timestamp without time zone]</text>
<polygon fill="none" stroke="#000000" points="593,-102.5 593,-132.5 896,-132.5 896,-102.5 593,-102.5"/>
<text text-anchor="start" x="600" y="-113.9" font-family="Arial" font-size="14.00" fill="#000000">updated_user_id    </text>
<text text-anchor="start" x="738.4712" y="-113.9" font-family="Arial" font-size="14.00" fill="#666666">[text]</text>
<polygon fill="none" stroke="#000000" points="593,-72.5 593,-102.5 896,-102.5 896,-72.5 593,-72.5"/>
<text text-anchor="start" x="600" y="-83.9" font-family="Arial" font-size="14.00" fill="#000000">open_plant_id    </text>
<text text-anchor="start" x="722.1346" y="-83.9" font-family="Arial" font-size="14.00" fill="#666666">[varchar(26)]</text>
<polygon fill="none" stroke="#000000" points="593,-42.5 593,-72.5 896,-72.5 896,-42.5 593,-42.5"/>
<text text-anchor="start" x="600" y="-53.9" font-family="Arial" font-size="14.00" fill="#000000">global_plant_id    </text>
<text text-anchor="start" x="728.3478" y="-53.9" font-family="Arial" font-size="14.00" fill="#666666">[varchar(256)]</text>
</g>
<!-- public.parts&#45;&gt;public.plants -->
<g id="edge4" class="edge">
<title>public.parts:operator_id&#45;&gt;public.plants:operator_id</title>
<path fill="none" stroke="#000000" d="M597.7502,-877.1723C363.0919,-862.0341 351.9273,-327.5 593,-327.5"/>
<polygon fill="#000000" stroke="#000000" points="598.0051,-877.1803 607.8562,-881.9977 603.0026,-877.3402 608,-877.5 608,-877.5 608,-877.5 603.0026,-877.3402 608.1438,-873.0023 598.0051,-877.1803 598.0051,-877.1803"/>
<text text-anchor="start" x="10.9705" y="-887.5" font-family="Arial" font-size="10.00" fill="#000000">FOREIGN KEY (operator_id, plant_id) REFERENCES plants(operator_id, plant_id) ON UPDATE CASCADE ON DELETE CASCADE</text>
</g>
<!-- public.cfp_infomation -->
<g id="node2" class="node">
<title>public.cfp_infomation</title>
<polygon fill="#efefef" stroke="transparent" points="178,-1502.5 178,-1537.5 488,-1537.5 488,-1502.5 178,-1502.5"/>
<polygon fill="none" stroke="#000000" points="178,-1502.5 178,-1537.5 488,-1537.5 488,-1502.5 178,-1502.5"/>
<text text-anchor="start" x="184.6961" y="-1515.3" font-family="Arial Bold" font-size="18.00" fill="#000000">public.cfp_infomation</text>
<text text-anchor="start" x="353.7359" y="-1515.3" font-family="Arial" font-size="14.00" fill="#000000">    </text>
<text text-anchor="start" x="387.9407" y="-1515.3" font-family="Arial" font-size="14.00" fill="#666666">[BASE TABLE]</text>
<polygon fill="none" stroke="#000000" points="178,-1472.5 178,-1502.5 488,-1502.5 488,-1472.5 178,-1472.5"/>
<text text-anchor="start" x="185" y="-1483.9" font-family="Arial" font-size="14.00" fill="#000000">trace_id    </text>
<text text-anchor="start" x="268.993" y="-1483.9" font-family="Arial" font-size="14.00" fill="#666666">[varchar(256)]</text>
<polygon fill="none" stroke="#000000" points="178,-1442.5 178,-1472.5 488,-1472.5 488,-1442.5 178,-1442.5"/>
<text text-anchor="start" x="185" y="-1453.9" font-family="Arial" font-size="14.00" fill="#000000">deleted_at    </text>
<text text-anchor="start" x="284.5708" y="-1453.9" font-family="Arial" font-size="14.00" fill="#666666">[timestamp without time zone]</text>
<polygon fill="none" stroke="#000000" points="178,-1412.5 178,-1442.5 488,-1442.5 488,-1412.5 178,-1412.5"/>
<text text-anchor="start" x="185" y="-1423.9" font-family="Arial" font-size="14.00" fill="#000000">created_at    </text>
<text text-anchor="start" x="285.3422" y="-1423.9" font-family="Arial" font-size="14.00" fill="#666666">[timestamp without time zone]</text>
<polygon fill="none" stroke="#000000" points="178,-1382.5 178,-1412.5 488,-1412.5 488,-1382.5 178,-1382.5"/>
<text text-anchor="start" x="185" y="-1393.9" font-family="Arial" font-size="14.00" fill="#000000">created_user_id    </text>
<text text-anchor="start" x="319.5666" y="-1393.9" font-family="Arial" font-size="14.00" fill="#666666">[text]</text>
<polygon fill="none" stroke="#000000" points="178,-1352.5 178,-1382.5 488,-1382.5 488,-1352.5 178,-1352.5"/>
<text text-anchor="start" x="185" y="-1363.9" font-family="Arial" font-size="14.00" fill="#000000">updated_at    </text>
<text text-anchor="start" x="289.2468" y="-1363.9" font-family="Arial" font-size="14.00" fill="#666666">[timestamp without time zone]</text>
<polygon fill="none" stroke="#000000" points="178,-1322.5 178,-1352.5 488,-1352.5 488,-1322.5 178,-1322.5"/>
<text text-anchor="start" x="185" y="-1333.9" font-family="Arial" font-size="14.00" fill="#000000">updated_user_id    </text>
<text text-anchor="start" x="323.4712" y="-1333.9" font-family="Arial" font-size="14.00" fill="#666666">[text]</text>
<polygon fill="none" stroke="#000000" points="178,-1292.5 178,-1322.5 488,-1322.5 488,-1292.5 178,-1292.5"/>
<text text-anchor="start" x="185" y="-1303.9" font-family="Arial" font-size="14.00" fill="#000000">cfp_id    </text>
<text text-anchor="start" x="256.5498" y="-1303.9" font-family="Arial" font-size="14.00" fill="#666666">[varchar(256)]</text>
<polygon fill="none" stroke="#000000" points="178,-1262.5 178,-1292.5 488,-1292.5 488,-1262.5 178,-1262.5"/>
<text text-anchor="start" x="185" y="-1273.9" font-family="Arial" font-size="14.00" fill="#000000">ghg_emission    </text>
<text text-anchor="start" x="305.5568" y="-1273.9" font-family="Arial" font-size="14.00" fill="#666666">[numeric]</text>
<polygon fill="none" stroke="#000000" points="178,-1232.5 178,-1262.5 488,-1262.5 488,-1232.5 178,-1232.5"/>
<text text-anchor="start" x="185" y="-1243.9" font-family="Arial" font-size="14.00" fill="#000000">ghg_declared_unit    </text>
<text text-anchor="start" x="334.3604" y="-1243.9" font-family="Arial" font-size="14.00" fill="#666666">[varchar(20)]</text>
<polygon fill="none" stroke="#000000" points="178,-1202.5 178,-1232.5 488,-1232.5 488,-1202.5 178,-1202.5"/>
<text text-anchor="start" x="185" y="-1213.9" font-family="Arial" font-size="14.00" fill="#000000">cfp_type    </text>
<text text-anchor="start" x="272.1164" y="-1213.9" font-family="Arial" font-size="14.00" fill="#666666">[varchar(20)]</text>
<polygon fill="none" stroke="#000000" points="178,-1172.5 178,-1202.5 488,-1202.5 488,-1172.5 178,-1172.5"/>
<text text-anchor="start" x="185" y="-1183.9" font-family="Arial" font-size="14.00" fill="#000000">dqr_type    </text>
<text text-anchor="start" x="273.669" y="-1183.9" font-family="Arial" font-size="14.00" fill="#666666">[varchar(256)]</text>
<polygon fill="none" stroke="#000000" points="178,-1142.5 178,-1172.5 488,-1172.5 488,-1142.5 178,-1142.5"/>
<text text-anchor="start" x="185" y="-1153.9" font-family="Arial" font-size="14.00" fill="#000000">te_r    </text>
<text text-anchor="start" x="243.3212" y="-1153.9" font-family="Arial" font-size="14.00" fill="#666666">[numeric]</text>
<polygon fill="none" stroke="#000000" points="178,-1112.5 178,-1142.5 488,-1142.5 488,-1112.5 178,-1112.5"/>
<text text-anchor="start" x="185" y="-1123.9" font-family="Arial" font-size="14.00" fill="#000000">ge_r    </text>
<text text-anchor="start" x="247.2132" y="-1123.9" font-family="Arial" font-size="14.00" fill="#666666">[numeric]</text>
<polygon fill="none" stroke="#000000" points="178,-1082.5 178,-1112.5 488,-1112.5 488,-1082.5 178,-1082.5"/>
<text text-anchor="start" x="185" y="-1093.9" font-family="Arial" font-size="14.00" fill="#000000">ti_r    </text>
<text text-anchor="start" x="238.6452" y="-1093.9" font-family="Arial" font-size="14.00" fill="#666666">[numeric]</text>
</g>
<!-- public.cfp_infomation&#45;&gt;public.parts -->
<g id="edge1" class="edge">
<title>public.cfp_infomation:trace_id&#45;&gt;public.parts:trace_id</title>
<path fill="none" stroke="#000000" d="M496.9221,-1482.721C536.5445,-1437.4496 526.3881,-1084.8086 540,-1040 559.2394,-976.6665 541.8087,-907.5 608,-907.5"/>
<polygon fill="#000000" stroke="#000000" points="496.8151,-1482.7783 485.8752,-1483.5332 492.4076,-1485.1391 488,-1487.5 488,-1487.5 488,-1487.5 492.4076,-1485.1391 490.1248,-1491.4668 496.8151,-1482.7783 496.8151,-1482.7783"/>
<text text-anchor="start" x="6.771" y="-1497.5" font-family="Arial" font-size="10.00" fill="#000000">FOREIGN KEY (trace_id) REFERENCES parts(trace_id) ON UPDATE CASCADE ON DELETE CASCADE</text>
</g>
<!-- public.trades -->
<g id="node3" class="node">
<title>public.trades</title>
<polygon fill="#efefef" stroke="transparent" points="593,-1457.5 593,-1492.5 896,-1492.5 896,-1457.5 593,-1457.5"/>
<polygon fill="none" stroke="#000000" points="593,-1457.5 593,-1492.5 896,-1492.5 896,-1457.5 593,-1457.5"/>
<text text-anchor="start" x="629.7049" y="-1470.3" font-family="Arial Bold" font-size="18.00" fill="#000000">public.trades</text>
<text text-anchor="start" x="731.7271" y="-1470.3" font-family="Arial" font-size="14.00" fill="#000000">    </text>
<text text-anchor="start" x="765.9319" y="-1470.3" font-family="Arial" font-size="14.00" fill="#666666">[BASE TABLE]</text>
<polygon fill="none" stroke="#000000" points="593,-1427.5 593,-1457.5 896,-1457.5 896,-1427.5 593,-1427.5"/>
<text text-anchor="start" x="600" y="-1438.9" font-family="Arial" font-size="14.00" fill="#000000">trade_id    </text>
<text text-anchor="start" x="684.7756" y="-1438.9" font-family="Arial" font-size="14.00" fill="#666666">[varchar(256)]</text>
<polygon fill="none" stroke="#000000" points="593,-1397.5 593,-1427.5 896,-1427.5 896,-1397.5 593,-1397.5"/>
<text text-anchor="start" x="600" y="-1408.9" font-family="Arial" font-size="14.00" fill="#000000">downstream_operator_id    </text>
<text text-anchor="start" x="789.0154" y="-1408.9" font-family="Arial" font-size="14.00" fill="#666666">[varchar(256)]</text>
<polygon fill="none" stroke="#000000" points="593,-1367.5 593,-1397.5 896,-1397.5 896,-1367.5 593,-1367.5"/>
<text text-anchor="start" x="600" y="-1378.9" font-family="Arial" font-size="14.00" fill="#000000">upstream_operator_id    </text>
<text text-anchor="start" x="771.1262" y="-1378.9" font-family="Arial" font-size="14.00" fill="#666666">[varchar(256)]</text>
<polygon fill="none" stroke="#000000" points="593,-1337.5 593,-1367.5 896,-1367.5 896,-1337.5 593,-1337.5"/>
<text text-anchor="start" x="600" y="-1348.9" font-family="Arial" font-size="14.00" fill="#000000">downstream_trace_id    </text>
<text text-anchor="start" x="768.007" y="-1348.9" font-family="Arial" font-size="14.00" fill="#666666">[varchar(256)]</text>
<polygon fill="none" stroke="#000000" points="593,-1307.5 593,-1337.5 896,-1337.5 896,-1307.5 593,-1307.5"/>
<text text-anchor="start" x="600" y="-1318.9" font-family="Arial" font-size="14.00" fill="#000000">upstream_trace_id    </text>
<text text-anchor="start" x="750.1178" y="-1318.9" font-family="Arial" font-size="14.00" fill="#666666">[varchar(256)]</text>
<polygon fill="none" stroke="#000000" points="593,-1277.5 593,-1307.5 896,-1307.5 896,-1277.5 593,-1277.5"/>
<text text-anchor="start" x="600" y="-1288.9" font-family="Arial" font-size="14.00" fill="#000000">trade_date    </text>
<text text-anchor="start" x="701.1248" y="-1288.9" font-family="Arial" font-size="14.00" fill="#666666">[timestamp without time zone]</text>
<polygon fill="none" stroke="#000000" points="593,-1247.5 593,-1277.5 896,-1277.5 896,-1247.5 593,-1247.5"/>
<text text-anchor="start" x="600" y="-1258.9" font-family="Arial" font-size="14.00" fill="#000000">deleted_at    </text>
<text text-anchor="start" x="699.5708" y="-1258.9" font-family="Arial" font-size="14.00" fill="#666666">[timestamp without time zone]</text>
<polygon fill="none" stroke="#000000" points="593,-1217.5 593,-1247.5 896,-1247.5 896,-1217.5 593,-1217.5"/>
<text text-anchor="start" x="600" y="-1228.9" font-family="Arial" font-size="14.00" fill="#000000">created_at    </text>
<text text-anchor="start" x="700.3422" y="-1228.9" font-family="Arial" font-size="14.00" fill="#666666">[timestamp without time zone]</text>
<polygon fill="none" stroke="#000000" points="593,-1187.5 593,-1217.5 896,-1217.5 896,-1187.5 593,-1187.5"/>
<text text-anchor="start" x="600" y="-1198.9" font-family="Arial" font-size="14.00" fill="#000000">created_user_id    </text>
<text text-anchor="start" x="734.5666" y="-1198.9" font-family="Arial" font-size="14.00" fill="#666666">[text]</text>
<polygon fill="none" stroke="#000000" points="593,-1157.5 593,-1187.5 896,-1187.5 896,-1157.5 593,-1157.5"/>
<text text-anchor="start" x="599.8065" y="-1168.9" font-family="Arial" font-size="14.00" fill="#000000">updated_at    </text>
<text text-anchor="start" x="704.0533" y="-1168.9" font-family="Arial" font-size="14.00" fill="#666666">[timestamp without time zone]</text>
<polygon fill="none" stroke="#000000" points="593,-1127.5 593,-1157.5 896,-1157.5 896,-1127.5 593,-1127.5"/>
<text text-anchor="start" x="600" y="-1138.9" font-family="Arial" font-size="14.00" fill="#000000">updated_user_id    </text>
<text text-anchor="start" x="738.4712" y="-1138.9" font-family="Arial" font-size="14.00" fill="#666666">[text]</text>
</g>
<!-- public.trades&#45;&gt;public.parts -->
<g id="edge2" class="edge">
<title>public.trades:downstream_trace_id&#45;&gt;public.parts:trace_id</title>
<path fill="none" stroke="#000000" d="M584.2295,-1347.1924C545.6043,-1296.9853 561.7161,-907.5 608,-907.5"/>
<polygon fill="#000000" stroke="#000000" points="584.4446,-1347.3226 590.6702,-1356.3499 588.7223,-1349.9113 593,-1352.5 593,-1352.5 593,-1352.5 588.7223,-1349.9113 595.3298,-1348.6501 584.4446,-1347.3226 584.4446,-1347.3226"/>
<text text-anchor="start" x="600.158" y="-1362.5" font-family="Arial" font-size="10.00" fill="#000000">FOREIGN KEY (downstream_trace_id) REFERENCES parts(trace_id)</text>
</g>
<!-- public.parts_structures -->
<g id="node4" class="node">
<title>public.parts_structures</title>
<polygon fill="#efefef" stroke="transparent" points="1000,-1397.5 1000,-1432.5 1322,-1432.5 1322,-1397.5 1000,-1397.5"/>
<polygon fill="none" stroke="#000000" points="1000,-1397.5 1000,-1432.5 1322,-1432.5 1322,-1397.5 1000,-1397.5"/>
<text text-anchor="start" x="1006.7012" y="-1410.3" font-family="Arial Bold" font-size="18.00" fill="#000000">public.parts_structures</text>
<text text-anchor="start" x="1187.7308" y="-1410.3" font-family="Arial" font-size="14.00" fill="#000000">    </text>
<text text-anchor="start" x="1221.9356" y="-1410.3" font-family="Arial" font-size="14.00" fill="#666666">[BASE TABLE]</text>
<polygon fill="none" stroke="#000000" points="1000,-1367.5 1000,-1397.5 1322,-1397.5 1322,-1367.5 1000,-1367.5"/>
<text text-anchor="start" x="1007" y="-1378.9" font-family="Arial" font-size="14.00" fill="#000000">trace_id    </text>
<text text-anchor="start" x="1090.993" y="-1378.9" font-family="Arial" font-size="14.00" fill="#666666">[varchar(256)]</text>
<polygon fill="none" stroke="#000000" points="1000,-1337.5 1000,-1367.5 1322,-1367.5 1322,-1337.5 1000,-1337.5"/>
<text text-anchor="start" x="1007" y="-1348.9" font-family="Arial" font-size="14.00" fill="#000000">parent_trace_id    </text>
<text text-anchor="start" x="1138.4572" y="-1348.9" font-family="Arial" font-size="14.00" fill="#666666">[varchar(256)]</text>
<polygon fill="none" stroke="#000000" points="1000,-1307.5 1000,-1337.5 1322,-1337.5 1322,-1307.5 1000,-1307.5"/>
<text text-anchor="start" x="1007" y="-1318.9" font-family="Arial" font-size="14.00" fill="#000000">deleted_at    </text>
<text text-anchor="start" x="1106.5708" y="-1318.9" font-family="Arial" font-size="14.00" fill="#666666">[timestamp without time zone]</text>
<polygon fill="none" stroke="#000000" points="1000,-1277.5 1000,-1307.5 1322,-1307.5 1322,-1277.5 1000,-1277.5"/>
<text text-anchor="start" x="1007" y="-1288.9" font-family="Arial" font-size="14.00" fill="#000000">created_at    </text>
<text text-anchor="start" x="1107.3422" y="-1288.9" font-family="Arial" font-size="14.00" fill="#666666">[timestamp without time zone]</text>
<polygon fill="none" stroke="#000000" points="1000,-1247.5 1000,-1277.5 1322,-1277.5 1322,-1247.5 1000,-1247.5"/>
<text text-anchor="start" x="1007" y="-1258.9" font-family="Arial" font-size="14.00" fill="#000000">created_user_id    </text>
<text text-anchor="start" x="1141.5666" y="-1258.9" font-family="Arial" font-size="14.00" fill="#666666">[text]</text>
<polygon fill="none" stroke="#000000" points="1000,-1217.5 1000,-1247.5 1322,-1247.5 1322,-1217.5 1000,-1217.5"/>
<text text-anchor="start" x="1007" y="-1228.9" font-family="Arial" font-size="14.00" fill="#000000">updated_at    </text>
<text text-anchor="start" x="1111.2468" y="-1228.9" font-family="Arial" font-size="14.00" fill="#666666">[timestamp without time zone]</text>
<polygon fill="none" stroke="#000000" points="1000,-1187.5 1000,-1217.5 1322,-1217.5 1322,-1187.5 1000,-1187.5"/>
<text text-anchor="start" x="1007" y="-1198.9" font-family="Arial" font-size="14.00" fill="#000000">updated_user_id    </text>
<text text-anchor="start" x="1145.4712" y="-1198.9" font-family="Arial" font-size="14.00" fill="#666666">[text]</text>
</g>
<!-- public.parts_structures&#45;&gt;public.parts -->
<g id="edge3" class="edge">
<title>public.parts_structures:trace_id&#45;&gt;public.parts:trace_id</title>
<path fill="none" stroke="#000000" d="M989.9806,-1380.7736C927.3986,-1357.6954 970.3431,-1109.8902 948,-1040 927.9058,-977.1443 946.9895,-907.5 881,-907.5"/>
<polygon fill="#000000" stroke="#000000" points="990.1452,-1380.8019 999.2358,-1386.9346 995.0726,-1381.6509 1000,-1382.5 1000,-1382.5 1000,-1382.5 995.0726,-1381.6509 1000.7642,-1378.0654 990.1452,-1380.8019 990.1452,-1380.8019"/>
<text text-anchor="start" x="1006.771" y="-1392.5" font-family="Arial" font-size="10.00" fill="#000000">FOREIGN KEY (trace_id) REFERENCES parts(trace_id) ON UPDATE CASCADE ON DELETE CASCADE</text>
</g>
</g>
</svg>
